<?xml version="1.0" encoding="utf-8"?>
<!-- Generator: Adobe Illustrator 19.0.0, SVG Export Plug-In . SVG Version: 6.00 Build 0)  -->
<svg version="1.1" id="Capa_1" xmlns="http://www.w3.org/2000/svg" xmlns:xlink="http://www.w3.org/1999/xlink" x="0px" y="0px"
	 viewBox="-115 42.7 79 47.3" style="enable-background:new -115 42.7 79 47.3;" xml:space="preserve">
<style type="text/css">
	.st0{fill:#FFFFFF;}
</style>
<g>
	<path class="st0" d="M-43,56.2h-65c-2.2,0-3.9-1.8-3.9-3.9v0c0-2.2,1.8-3.9,3.9-3.9h65c2.2,0,3.9,1.8,3.9,3.9v0
		C-39.1,54.4-40.8,56.2-43,56.2z"/>
	<path class="st0" d="M-43,70.3h-65c-2.2,0-3.9-1.8-3.9-3.9v0c0-2.2,1.8-3.9,3.9-3.9h65c2.2,0,3.9,1.8,3.9,3.9v0
		C-39.1,68.5-40.8,70.3-43,70.3z"/>
	<path class="st0" d="M-43,84.4h-65c-2.2,0-3.9-1.8-3.9-3.9v0c0-2.2,1.8-3.9,3.9-3.9h65c2.2,0,3.9,1.8,3.9,3.9v0
		C-39.1,82.6-40.8,84.4-43,84.4z"/>
</g>
</svg>
