<?xml version="1.0" encoding="utf-8"?>
<!-- Generator: Adobe Illustrator 19.0.0, SVG Export Plug-In . SVG Version: 6.00 Build 0)  -->
<svg version="1.1" id="Capa_1" xmlns="http://www.w3.org/2000/svg" xmlns:xlink="http://www.w3.org/1999/xlink" x="0px" y="0px"
	 viewBox="0 0 69.2 72.4" style="enable-background:new 0 0 69.2 72.4;" xml:space="preserve">
<style type="text/css">
	.st0{fill:#F7931E;}
	.st1{fill:#4D4D4D;}
</style>
<g id="XMLID_439_">
	<circle id="XMLID_169_" class="st0" cx="35.1" cy="36.5" r="30.3"/>
	<g id="XMLID_167_">
		<path id="XMLID_168_" class="st1" d="M53.9,21.1c-0.4-0.1-0.8,0.1-1.2,0.1H17c-0.5,0-0.9-0.4-1.3-0.1l19.1,16.8L53.9,21.1z"/>
		<path id="XMLID_170_" class="st1" d="M35,40.1l-0.1,0.2l0,0l0,0l0,0L13.6,22.2c-0.2,0.5-1.1,1.1-1.1,1.7v24.8c0,2,2.8,3.5,4.5,3.5
			h35.7c1.7,0,3.8-1.5,3.8-3.5V23.9c0-0.7-0.5-1.3-0.8-1.8L35,40.1z"/>
	</g>
</g>
</svg>
