<?xml version="1.0" encoding="utf-8"?>
<!-- Generator: Adobe Illustrator 19.0.0, SVG Export Plug-In . SVG Version: 6.00 Build 0)  -->
<svg version="1.1" id="Capa_1" xmlns="http://www.w3.org/2000/svg" xmlns:xlink="http://www.w3.org/1999/xlink" x="0px" y="0px"
	 viewBox="0 0 27.5 28.8" style="enable-background:new 0 0 27.5 28.8;" xml:space="preserve">
<style type="text/css">
	.st0{fill:#F7931E;}
</style>
<g id="XMLID_861_">
	<path id="XMLID_860_" class="st0" d="M13.8,3.6C7.3,3.6,2.1,8.8,2.1,15.3s5.2,11.7,11.7,11.7s11.7-5.2,11.7-11.7S20.2,3.6,13.8,3.6
		z M13.8,24.2c-5,0-9-4-9-9s4-9,9-9s9,4,9,9S18.7,24.2,13.8,24.2z"/>
	<rect id="XMLID_851_" x="11.2" y="1.9" class="st0" width="5.1" height="2.9"/>
	<path id="XMLID_853_" class="st0" d="M13.2,15.2L13.2,15.2c0.2-0.3,0.5-0.4,0.9-0.3l5.3,2.6c0.3,0.2,0.4,0.5,0.3,0.9l0,0
		c-0.2,0.3-0.5,0.4-0.9,0.3l-5.3-2.6C13.1,15.9,13,15.5,13.2,15.2z"/>
	<path id="XMLID_855_" class="st0" d="M13.8,15.9L13.8,15.9c-0.4,0-0.6-0.3-0.6-0.6v-7c0-0.4,0.3-0.6,0.6-0.6h0
		c0.4,0,0.6,0.3,0.6,0.6v7C14.4,15.6,14.1,15.9,13.8,15.9z"/>
</g>
</svg>
