<?xml version="1.0" encoding="utf-8"?>
<!-- Generator: Adobe Illustrator 19.0.0, SVG Export Plug-In . SVG Version: 6.00 Build 0)  -->
<svg version="1.1" id="Capa_1" xmlns="http://www.w3.org/2000/svg" xmlns:xlink="http://www.w3.org/1999/xlink" x="0px" y="0px"
	 viewBox="-429 231.1 101 98.9" style="enable-background:new -429 231.1 101 98.9;" xml:space="preserve">
<style type="text/css">
	.st0{fill:#F7931E;}
</style>
<g>
	<path class="st0" d="M-396.9,249.7v-6.8h8.8v6.8h22.4v7.8h-7.8c0,0-1,12.7-11.7,23.4c3.8,3.8,7.5,6.9,13.1,10l9.6-25.6h7.7
		l15.5,42.7c5.4-7.8,8.7-17.2,8.7-27.4c0-26.4-21.4-47.8-47.8-47.8c-14.6,0-27.7,6.6-36.5,16.9L-396.9,249.7L-396.9,249.7z"/>
	<polygon class="st0" points="-359,272.7 -367.1,294.9 -351.2,294.9 	"/>
	<path class="st0" d="M-349.4,300.5h-19.8l-5.5,15.1h-7l6.6-17.5c-6.8-3.4-11.5-7.4-16.3-11.3c-5.8,4.9-19.5,12.7-19.5,12.7
		l-3.9-5.8c7.8-4.9,9.7-5.8,18.5-12.7c-2-1.8-11.7-12.7-12.7-18.5h7.8c3.9,8.8,9.7,13.6,9.7,13.6c9.7-7.8,9.7-18.5,9.7-18.5h-38.9
		l0,0c-3.8,6.8-5.9,14.7-5.9,23.1c0,26.4,21.4,47.8,47.8,47.8c13.2,0,25.3-5.4,34-14.1L-349.4,300.5z M-390.6,287.1
		c-0.1-0.1-0.2-0.2-0.4-0.4C-390.9,286.8-390.7,287-390.6,287.1L-390.6,287.1L-390.6,287.1L-390.6,287.1L-390.6,287.1z"/>
</g>
</svg>
