<?xml version="1.0" encoding="utf-8"?>
<!-- Generator: Adobe Illustrator 19.0.0, SVG Export Plug-In . SVG Version: 6.00 Build 0)  -->
<svg version="1.1" id="Capa_1" xmlns="http://www.w3.org/2000/svg" xmlns:xlink="http://www.w3.org/1999/xlink" x="0px" y="0px"
	 viewBox="0 0 361.2 212.5" style="enable-background:new 0 0 361.2 212.5;" xml:space="preserve">
<style type="text/css">
	.st0{fill:#FF5F81;}
	.st1{fill:#4D4D4D;}
	.st2{fill:#F7D22F;}
</style>
<g id="XMLID_804_">
	<polygon id="XMLID_816_" class="st0" points="7.6,57.7 91.6,8.4 175.6,57.7 175.6,156.3 91.6,205.6 7.6,156.3 	"/>
	<g id="XMLID_805_">
		<polygon id="XMLID_815_" class="st1" points="115,161.9 63.9,161.9 56.2,93.8 97.1,94.1 110.2,133.7 		"/>
		<path id="XMLID_814_" class="st1" d="M70,96.1l-12.9,2l-6.6-42.5c-0.3-2.2,1.2-4.3,3.4-4.6l5-0.8c2.2-0.3,4.3,1.2,4.6,3.4L70,96.1
			z"/>
		<path id="XMLID_813_" class="st1" d="M84.2,98.6l-13.9,0.3l-1.3-53.6c-0.1-2.4,1.8-4.3,4.2-4.4l5.3-0.1c2.4-0.1,4.3,1.8,4.4,4.2
			L84.2,98.6z"/>
		<path id="XMLID_812_" class="st1" d="M96.4,99l-13.5-2.9l11.5-53.8c0.5-2.3,2.8-3.8,5.1-3.3l5.2,1.1c2.3,0.5,3.8,2.8,3.3,5.1
			L96.4,99z"/>
		<path id="XMLID_810_" class="st1" d="M124.5,114.2c-1.7,4.8-5.5,8.2-10,8.4c-6.3,0.3-11.7-5.9-11.8-13.5c-0.1-7.7,5-14,11.3-14
			c4.8,0,8.8,3.6,10.5,8.6c0.8,2.3,2.7,3.7,4.8,3.8h0c3.6,0,6.2-4.3,4.8-8.4C130.8,89,122.4,82,112.8,82.7
			c-11,0.7-19.9,11.7-20.4,25c-0.6,15.1,9.3,27.5,21.6,27.5c8.9,0,16.5-6.5,19.9-15.8c1.5-4.1-1-8.7-4.7-8.8h0
			C127.2,110.5,125.3,111.9,124.5,114.2z"/>
	</g>
</g>
<g id="XMLID_611_">
	<polygon id="XMLID_803_" class="st2" points="183.6,57.7 268.1,8.4 352.6,57.7 352.6,156.3 268.1,205.6 183.6,156.3 	"/>
	<g id="XMLID_612_">
		<g id="XMLID_800_">
			<path id="XMLID_802_" class="st1" d="M301.4,129.5c-2.5,1.6-5.5,1.7-8.1,0.5c-0.2,3.1-2.2,6-5.4,7.2c-3.2,1.1-6.5,0.2-8.7-2
				c-1.1,2.6-3.6,4.5-6.5,4.8l19.5,31.4l10.4-12.9l16.6-0.6L301.4,129.5z"/>
			<path id="XMLID_801_" class="st1" d="M261.3,135.1c-2.2,2.3-5.6,3.2-8.7,2h0c-3.2-1.1-5.2-4-5.4-7.2c-2.5,1.2-5.6,1.1-8.1-0.5
				l-17.9,28.3l16.6,0.6l10.4,12.9l19.5-31.4C264.8,139.6,262.4,137.7,261.3,135.1z"/>
		</g>
		<g id="XMLID_613_">
			<g id="XMLID_617_">
				<path id="XMLID_797_" class="st1" d="M270.2,49.4c-22.6,0-40.9,18.3-40.9,40.9c0,22.6,18.3,40.9,40.9,40.9s40.9-18.3,40.9-40.9
					C311.2,67.7,292.8,49.4,270.2,49.4z M270.2,126.6c-20,0-36.3-16.3-36.3-36.3c0-20,16.3-36.3,36.3-36.3s36.3,16.3,36.3,36.3
					C306.5,110.4,290.3,126.6,270.2,126.6z"/>
				<path id="XMLID_794_" class="st1" d="M270.2,58.8c-17.4,0-31.5,14.1-31.5,31.5c0,17.4,14.1,31.5,31.5,31.5s31.5-14.1,31.5-31.5
					C301.8,72.9,287.6,58.8,270.2,58.8z M270.2,118.3c-15.4,0-28-12.5-28-28c0-15.4,12.5-28,28-28s28,12.5,28,28
					C298.2,105.8,285.7,118.3,270.2,118.3z"/>
				<path id="XMLID_793_" class="st1" d="M262,50.7l6.4-6.4c0.8-0.8,2.2-0.8,3,0l6.4,6.4H262z"/>
				<path id="XMLID_792_" class="st1" d="M249.2,55.7l3.9-8.3c0.5-1.1,1.8-1.5,2.9-1l8.3,3.9L249.2,55.7z"/>
				<path id="XMLID_791_" class="st1" d="M238.8,64.9l0.8-9.1c0.1-1.2,1.1-2.1,2.3-2l9.1,0.8L238.8,64.9z"/>
				<path id="XMLID_790_" class="st1" d="M232.2,77.1l-2.4-8.8c-0.3-1.2,0.4-2.3,1.5-2.6l8.8-2.4L232.2,77.1z"/>
				<path id="XMLID_669_" class="st1" d="M230.2,90.8l-5.2-7.5c-0.7-1-0.4-2.3,0.5-3L233,75L230.2,90.8z"/>
				<path id="XMLID_668_" class="st1" d="M233,104.3l-7.5-5.2c-1-0.7-1.2-2-0.5-3l5.2-7.5L233,104.3z"/>
				<path id="XMLID_667_" class="st1" d="M240.2,116.1l-8.8-2.4c-1.2-0.3-1.8-1.5-1.5-2.6l2.4-8.8L240.2,116.1z"/>
				<path id="XMLID_640_" class="st1" d="M251,124.7l-9.1,0.8c-1.2,0.1-2.2-0.8-2.3-2l-0.8-9.1L251,124.7z"/>
				<path id="XMLID_627_" class="st1" d="M264.2,129.1l-8.3,3.9c-1.1,0.5-2.4,0-2.9-1l-3.9-8.3L264.2,129.1z"/>
				<path id="XMLID_626_" class="st1" d="M278,128.7l-6.4,6.4c-0.8,0.8-2.2,0.8-3,0l-6.4-6.4H278z"/>
				<path id="XMLID_625_" class="st1" d="M290.8,123.6l-3.9,8.3c-0.5,1.1-1.8,1.5-2.9,1l-8.3-3.9L290.8,123.6z"/>
				<path id="XMLID_624_" class="st1" d="M301.2,114.4l-0.8,9.1c-0.1,1.2-1.1,2.1-2.3,2l-9.1-0.8L301.2,114.4z"/>
				<path id="XMLID_623_" class="st1" d="M307.8,102.3l2.4,8.8c0.3,1.2-0.4,2.3-1.5,2.6l-8.8,2.4L307.8,102.3z"/>
				<path id="XMLID_622_" class="st1" d="M309.8,88.6l5.2,7.5c0.7,1,0.4,2.3-0.5,3l-7.5,5.2L309.8,88.6z"/>
				<path id="XMLID_621_" class="st1" d="M307,75l7.5,5.2c1,0.7,1.2,2,0.5,3l-5.2,7.5L307,75z"/>
				<path id="XMLID_620_" class="st1" d="M299.8,63.3l8.8,2.4c1.2,0.3,1.8,1.5,1.5,2.6l-2.4,8.8L299.8,63.3z"/>
				<path id="XMLID_619_" class="st1" d="M289,54.7l9.1-0.8c1.2-0.1,2.2,0.8,2.3,2l0.8,9.1L289,54.7z"/>
				<path id="XMLID_618_" class="st1" d="M275.9,50.3l8.3-3.9c1.1-0.5,2.4,0,2.9,1l3.9,8.3L275.9,50.3z"/>
			</g>
			<g id="XMLID_614_">
				<path id="XMLID_615_" class="st1" d="M277.2,111.6h-12V88.4c0-2.8,0-4.6,0.1-7c-0.9,0.8-1.6,1.1-2.7,2.1l-2.6,2l-6.2-7.6
					l12.6-10.2h10.7V111.6z"/>
			</g>
		</g>
	</g>
</g>
</svg>
