<?xml version="1.0" encoding="utf-8"?>
<!-- Generator: Adobe Illustrator 19.0.0, SVG Export Plug-In . SVG Version: 6.00 Build 0)  -->
<svg version="1.1" id="Capa_1" xmlns="http://www.w3.org/2000/svg" xmlns:xlink="http://www.w3.org/1999/xlink" x="0px" y="0px"
	 viewBox="-426 228 105.5 106" style="enable-background:new -426 228 105.5 106;" xml:space="preserve">
<style type="text/css">
	.st0{fill:#00D0C7;}
	.st1{fill:#FFFFFF;}
	.st2{opacity:0.5;fill:#333333;enable-background:new    ;}
</style>
<g id="XMLID_742_">
	<g id="XMLID_1364_">
		<circle id="XMLID_523_" class="st0" cx="-374" cy="280.2" r="50"/>
		<g id="XMLID_524_">
			<path id="XMLID_525_" class="st1" d="M-367.7,268.7h-12.6l-6.3,11l6.3,11h12.6l6.3-11L-367.7,268.7z M-371.1,284.7h-5.8l-2.9-5
				l2.9-5h5.8l2.9,5L-371.1,284.7z"/>
			<g id="XMLID_528_">
				<polygon id="XMLID_529_" class="st1" points="-371.3,247 -373.8,244.6 -376.3,247 -376.3,271.8 -371.3,271.8 				"/>
				<polygon id="XMLID_530_" class="st1" points="-372.5,257.7 -376,261.2 -382.1,255.1 -382.1,251.6 -378.6,251.5 				"/>
				<polygon id="XMLID_531_" class="st1" points="-374.9,257.7 -371.4,261.2 -365.3,255.1 -365.4,251.6 -368.8,251.5 				"/>
			</g>
			<g id="XMLID_532_">
				<polygon id="XMLID_533_" class="st1" points="-401,261 -404.3,261.9 -403.5,265.3 -382.1,277.7 -379.6,273.4 				"/>
				<polygon id="XMLID_534_" class="st1" points="-392.4,267.3 -391.1,272.1 -399.4,274.4 -402.4,272.6 -400.7,269.5 				"/>
				<polygon id="XMLID_535_" class="st1" points="-393.6,269.4 -388.8,268.1 -391,259.8 -394.1,258.1 -395.8,261.1 				"/>
			</g>
			<g id="XMLID_536_">
				<polygon id="XMLID_537_" class="st1" points="-403.8,293.7 -404.6,297 -401.3,298 -379.8,285.6 -382.3,281.3 				"/>
				<polygon id="XMLID_538_" class="st1" points="-394,289.3 -389.1,290.6 -391.4,299 -394.4,300.7 -396.2,297.7 				"/>
				<polygon id="XMLID_539_" class="st1" points="-392.7,291.5 -391.4,286.6 -399.8,284.4 -402.8,286.2 -401.1,289.2 				"/>
			</g>
			<g id="XMLID_540_">
				<polygon id="XMLID_541_" class="st1" points="-376.8,312.4 -374.3,314.8 -371.8,312.4 -371.8,287.6 -376.8,287.6 				"/>
				<polygon id="XMLID_542_" class="st1" points="-375.7,301.7 -372.1,298.2 -366,304.3 -366.1,307.8 -369.6,307.9 				"/>
				<polygon id="XMLID_543_" class="st1" points="-373.2,301.7 -376.7,298.2 -382.9,304.3 -382.8,307.8 -379.3,307.9 				"/>
			</g>
			<g id="XMLID_544_">
				<polygon id="XMLID_545_" class="st1" points="-347.1,298.4 -343.8,297.5 -344.6,294.1 -366.1,281.7 -368.6,286 				"/>
				<polygon id="XMLID_546_" class="st1" points="-355.8,292.1 -357.1,287.3 -348.7,285 -345.8,286.8 -347.4,289.9 				"/>
				<polygon id="XMLID_547_" class="st1" points="-354.6,290 -359.4,291.3 -357.1,299.6 -354.1,301.3 -352.3,298.3 				"/>
			</g>
			<g id="XMLID_548_">
				<polygon id="XMLID_549_" class="st1" points="-344.4,265.7 -343.6,262.4 -346.9,261.4 -368.3,273.8 -365.8,278.1 				"/>
				<polygon id="XMLID_550_" class="st1" points="-354.2,270.1 -359,268.8 -356.8,260.4 -353.7,258.7 -351.9,261.7 				"/>
				<polygon id="XMLID_551_" class="st1" points="-355.4,267.9 -356.7,272.8 -348.3,275 -345.4,273.2 -347.1,270.2 				"/>
			</g>
		</g>
	</g>
	<path id="XMLID_1356_" class="st2" d="M-338.1,245.8c8.4,8.9,13.6,20.9,13.6,34.2c0,27.5-22.3,49.8-49.8,49.8
		c-13.2,0-25.3-5.2-34.2-13.6c9.1,9.6,21.9,15.6,36.2,15.6c27.5,0,49.8-22.3,49.8-49.8C-322.5,267.8-328.5,254.9-338.1,245.8z"/>
</g>
</svg>
