<?xml version="1.0" encoding="utf-8"?>
<!-- Generator: Adobe Illustrator 19.0.0, SVG Export Plug-In . SVG Version: 6.00 Build 0)  -->
<svg version="1.1" id="Capa_1" xmlns="http://www.w3.org/2000/svg" xmlns:xlink="http://www.w3.org/1999/xlink" x="0px" y="0px"
	 viewBox="0 0 292 159.7" style="enable-background:new 0 0 292 159.7;" xml:space="preserve">
<style type="text/css">
	.st0{fill:#F7931E;}
	.st1{fill:#4D4D4D;}
</style>
<g id="XMLID_5_">
	<path id="XMLID_6_" class="st0" d="M274.9,67.8c-0.3-1.8-1.9-2.6-1.9-2.6l-7.3-0.1c-7.2-0.2-5.1,0.1-12.5,4.1
		c-7.4,3.9-12-0.4-14.2-2.3c-2.2-1.9-4.6-1.7-4.6-1.7c-9-0.8-10.2,10.9-10.2,10.9c1.3,0.1,1.1,3.5,1.1,3.5c0.1,1.1-0.6,1.1-0.6,1.1
		s-9.5,0.2-11.1,0c-1.6-0.2-1.4-0.7-1.7-1c-0.3-0.2,0-2.2,0.2-2.9c0.2-0.6,0.8-0.9,0.8-0.9c0.6-7,4.9-16.1,10-19.6
		c5.1-3.5,8-3.6,11.6-4.2c3.6-0.7,4.1-4,4.1-4l0.1-5.8c-1.2-0.1-0.9-1.8-0.9-1.8c-0.2-2.4,1.1-2.3,1.1-2.3h2
		c-0.8-1.2,0.6-1.7,0.6-1.7h2v-6.1c-0.9-0.5-1.6-1.2-1.6-1.2l-6.8,1.6c-6.4,1.6-6.8-4.8-6.8-4.8c0.3-5.7,5.7-5.5,5.7-5.5l7.8,1.9
		c0,0,1-1.6,4.9-1.9c3.9-0.3,6,1.9,6,1.9l7.6-1.9c5.2-0.1,5.8,5.1,5.8,5.1c-0.1,6.5-6.6,5.5-6.6,5.5l-7.1-1.6
		c-0.4,0.5-1.6,1.1-1.6,1.1v5.9l2.4,0.1c1.4,0.8,0.5,1.6,0.5,1.6s1.2,0.1,2.3,0.1c1.1,0,0.8,3.1,0.8,3.1c-0.1,0.8-0.7,1-0.7,1
		l0.2,5.5c0.7,4.5,4.4,4.8,4.4,4.8l12.3,0.1c2.1-1.2,1.9-2.6,1.9-2.6l6.9,0.1V28.6L239.2,4l-42.5,24.5l0,49.1l42.5,24.5l42.5-24.5
		v-9.8L274.9,67.8z"/>
	<path id="XMLID_7_" class="st0" d="M52.4,4L9.9,28.6v49.1l13,7.5l9.4-17.7c1.1-2,3.3-3.1,5.5-2.9c3.4-5.5,5.9-4.4,5.9-4.4
		s23.6,7.8,28,8.9c4.5,1.1,6.5-6,9.5-11.7c1.4-2.6-0.6-5.1-3.3-7l-1.7,3.2c-1.4,2.7-4.7,3.7-7.4,2.3L35.5,38.2
		c-2.7-1.4-3.7-4.7-2.3-7.4l3.4-6.4c1.4-2.7,4.7-3.7,7.4-2.3l33.4,17.7c2.7,1.4,3.7,4.7,2.3,7.4l-1,1.8c3.1,2.3,5.9,5.3,4.4,8.3
		C80,63,77,72.2,72.5,71.1c-4.5-1.1-28.9-9-28.9-9s-1.3-0.8-4,3c0,0,0.1,0,0.1,0l0.6,0.3c2.7,1.4,3.7,4.7,2.3,7.4L33,91l19.4,11.2
		L95,77.7l0-49.1L52.4,4z"/>
	<path id="XMLID_8_" class="st0" d="M154.3,78.6c-0.3-0.5,0.5-0.9,0.5-0.9s-10.2-16.2-10.4-16.7c-0.2-0.5-0.8,0-1.1,0.1
		c-0.3,0.1-1.2,0-1.4-0.3c-0.3-0.3-0.4-0.6-3-4.8c-2.6-4.1-7-2.3-9.9-0.9c-2.8,1.4-2.4,3.3-1.9,4.2c0.5,1-0.2,1.8-0.2,1.8
		s-5.1,3.2-5.6,3.4c-0.5,0.2-1.5-0.4-1.5-0.4s-5.9-9.8-6.5-10.8c-0.6-1,0.1-1.6,0.1-1.6l5.2-3.4c0.4-0.3,0.9-0.2,0.9-0.2
		c1.2,0.9,4.5,1.2,5.6,1c1.1-0.2,1.6-3.9,1.6-3.9c-0.8-2.8,7.3-7.4,16.4-11.4c9.1-4,19.7-4.3,22.3-2.8c2.6,1.5-1.2,1.7-1.2,1.7
		c-4.4,0.2-6.6,1.6-10.6,4.3c-3.9,2.7-4.9,7.6-5.2,9.1c-0.2,1.6,2.8,6.7,3.6,7.6c0.7,0.9,0.6,1.9,0,2.1c-0.7,0.1-0.4,1-0.4,1
		l9.9,16.7c0.7-0.4,1.1,0.1,1.1,0.1s3.9,6,9,13.7l16.8-9.7V28.6L146,4l-42.5,24.5v49.1l42.5,24.5l16.2-9.4
		C157.8,84.9,154.4,78.8,154.3,78.6z"/>
</g>
<g id="XMLID_1_">
	<path id="XMLID_2_" class="st1" d="M42,120.3c0,0,0,0.1,0,0.1v8.4c0,1-0.9,1.9-1.9,1.9c-1,0-1.9-0.9-1.9-1.9v-8.4c0,0,0-0.1,0-0.1
		c0-2-1.7-3.6-3.7-3.6c-2,0-3.6,1.6-3.6,3.7v8.4c0,0.1,0,0.2,0,0.2c0,0,0,0.1,0,0.1c0,0.1,0,0.1-0.1,0.2c0,0,0,0.1,0,0.2
		c-0.3,0.6-1,1.1-1.8,1.1c-0.1,0-0.2,0-0.4,0c-0.9-0.2-1.5-0.9-1.5-1.8v-8.4c0,0,0,0,0,0v-5.5c0-1.1,0.9-1.9,1.9-1.9
		c0.7,0,1.4,0.4,1.7,1.1c1.1-0.7,2.5-1.1,3.8-1.1c2.2,0,4.2,0.9,5.6,2.5c1.3-1.5,3.3-2.5,5.6-2.5c4.1,0,7.4,3.3,7.4,7.5v8.4
		c0,1-0.9,1.9-1.9,1.9c-1,0-1.9-0.9-1.9-1.9v-8.4c0-2-1.6-3.7-3.6-3.7C43.7,116.8,42.1,118.4,42,120.3z"/>
	<path id="XMLID_4_" class="st1" d="M68,130.7c-4.1,0-7.4-3.3-7.4-7.4v-8.5c0-1,0.9-1.9,1.9-1.9c1.1,0,1.9,0.9,1.9,1.9v8.5
		c0,2,1.6,3.6,3.6,3.6c2.1,0,3.7-1.6,3.7-3.6v-8.5c0-1,0.8-1.9,1.8-1.9c1,0,1.9,0.9,1.9,1.9v8.5C75.5,127.4,72.1,130.7,68,130.7z"/>
	<path id="XMLID_11_" class="st1" d="M83.8,105.8c1.1,0,2,0.9,2,2v21c0,1.1-0.9,2-2,2c-1.1,0-2-0.9-2-2v-21
		C81.9,106.7,82.8,105.8,83.8,105.8z"/>
	<path id="XMLID_13_" class="st1" d="M98.5,114.9c0,1.1-0.9,2-2,2h-0.9v9.9c1.1,0,2,0.9,2,2s-0.9,2-2,2c-2.2,0-3.9-1.8-3.9-3.9v-9.9
		h-1c-1.1,0-2-0.9-2-2c0-1.1,0.9-2,2-2h1v-5.2c0-1.1,0.9-2,2-2c1.1,0,2,0.9,2,2v5.2h0.9C97.6,113,98.5,113.8,98.5,114.9z"/>
	<path id="XMLID_15_" class="st1" d="M108.6,108.5c0,1.1-0.8,2-1.9,2c-1.1,0-1.9-0.9-1.9-2v-0.7c0-1.1,0.9-1.9,1.9-1.9
		c1.1,0,1.9,0.9,1.9,1.9V108.5z M108.6,114.9v13.9c0,1.1-0.8,1.9-1.9,1.9c-1.1,0-1.9-0.9-1.9-1.9v-13.9c0-1.1,0.9-2,1.9-2
		C107.8,113,108.6,113.8,108.6,114.9z"/>
	<path id="XMLID_18_" class="st1" d="M113.9,125.6c0.6-0.9,1.9-1,2.7-0.3c0.9,0.8,2.5,1.6,3.9,1.6c1,0,1.8-0.3,2.4-0.7
		c0.5-0.4,0.6-0.8,0.6-1.1c0-0.2,0-0.2-0.1-0.4c0-0.1-0.2-0.2-0.5-0.4c-0.5-0.4-1.6-0.7-2.8-1h0c-1.1-0.2-2.2-0.5-3.1-0.9
		c-1-0.5-1.8-1.1-2.5-2.1c-0.4-0.6-0.6-1.4-0.6-2.2c0-1.6,0.9-3,2.1-3.9c1.2-0.9,2.7-1.3,4.4-1.3c2.5,0,4.2,1.2,5.3,2
		c0.9,0.6,1.1,1.7,0.6,2.6c-0.6,0.9-1.7,1.1-2.6,0.5c-1.1-0.7-2.1-1.3-3.3-1.3c-0.9,0-1.7,0.3-2.1,0.6c-0.5,0.3-0.6,0.6-0.6,0.8
		c0,0.1,0,0.2,0.1,0.3c0,0.1,0.1,0.2,0.4,0.4c0.5,0.3,1.4,0.6,2.6,0.9l0,0h0c1.2,0.2,2.3,0.5,3.3,1c1,0.4,1.9,1.1,2.5,2.1
		c0.4,0.7,0.7,1.5,0.7,2.3c0,1.7-1,3.2-2.2,4.1c-1.3,0.9-2.9,1.4-4.6,1.4c-2.8,0-4.9-1.3-6.3-2.5
		C113.3,127.6,113.2,126.4,113.9,125.6z"/>
	<path id="XMLID_21_" class="st1" d="M131,121.8c0-4.8,3.8-8.9,8.7-8.9c4.6,0,8.3,3.4,8.6,8.2c0,0,0,0.1,0,0.2c0,0.1,0,0.2,0,0.3
		c-0.1,0.9-0.9,1.4-1.8,1.4H135c0.2,0.8,0.6,1.7,1.2,2.3c0.7,0.9,2.2,1.5,3.4,1.6c1.3,0.1,2.8-0.2,3.7-0.9c0.7-0.8,2.2-0.7,2.7-0.1
		c0.5,0.5,0.8,1.6,0,2.3c-1.7,1.6-3.8,2.3-6.4,2.3C134.8,130.7,131,126.7,131,121.8z M134.8,120.1h10.1c-0.4-1.4-2.2-3.5-5.3-3.8
		C136.6,116.5,135.1,118.6,134.8,120.1z"/>
	<path id="XMLID_24_" class="st1" d="M164.1,114.8c0,1-0.8,1.9-1.9,1.9c-0.8,0-1.5,0.2-2.1,0.7c-0.7,0.4-1.2,1-1.6,1.7
		c-0.9,1.1-1.3,2.5-1.5,3v6.8c0,1-0.9,1.9-2,1.9c-1,0-1.9-0.9-1.9-1.9v-14c0-1,0.9-1.8,1.9-1.8c1.1,0,2,0.8,2,1.8v0.2
		c0.2-0.2,0.5-0.5,0.7-0.7c1.2-0.8,2.7-1.4,4.5-1.4C163.2,113,164.1,113.8,164.1,114.8z"/>
	<path id="XMLID_26_" class="st1" d="M182.8,115.8l-5.8,13.8c0,0.1-0.1,0.2-0.1,0.2c0,0,0,0,0,0c-0.1,0.1-0.1,0.2-0.2,0.2
		c0,0,0,0,0,0c-0.1,0.1-0.1,0.1-0.2,0.2c0,0,0,0,0,0c-0.1,0.1-0.1,0.1-0.2,0.2c0,0,0,0-0.1,0c0,0,0,0,0,0c-0.1,0-0.2,0-0.3,0.1
		c0,0,0,0-0.1,0c-0.1,0-0.2,0-0.4,0c-0.1,0-0.2,0-0.3,0c0,0,0,0-0.1,0c-0.1,0-0.2-0.1-0.3-0.1c0,0,0,0,0,0c-0.1,0-0.1,0-0.1,0
		c-0.1,0-0.2-0.1-0.3-0.2c0,0,0,0,0,0c-0.1-0.1-0.1-0.1-0.2-0.2c0,0,0,0-0.1,0c0-0.1-0.1-0.2-0.2-0.2c0,0,0,0,0,0
		c-0.1,0-0.1-0.1-0.1-0.2l-5.8-13.8c-0.4-1,0-2,1-2.4c0.9-0.4,2,0.1,2.4,1l4.1,9.7l4.1-9.7c0.4-1,1.5-1.5,2.4-1
		C182.7,113.8,183.2,114.8,182.8,115.8z"/>
	<path id="XMLID_28_" class="st1" d="M193.3,108.5c0,1.1-0.8,2-1.9,2c-1.1,0-1.9-0.9-1.9-2v-0.7c0-1.1,0.9-1.9,1.9-1.9
		c1.1,0,1.9,0.9,1.9,1.9V108.5z M193.3,114.9v13.9c0,1.1-0.8,1.9-1.9,1.9c-1.1,0-1.9-0.9-1.9-1.9v-13.9c0-1.1,0.9-2,1.9-2
		C192.5,113,193.3,113.8,193.3,114.9z"/>
	<path id="XMLID_31_" class="st1" d="M198.1,121.9c0-4.9,4.1-8.9,9-8.9c2.1,0,4.1,0.8,5.7,2c0.8,0.6,1,1.8,0.4,2.6
		c-0.7,0.9-1.8,1-2.7,0.4c-0.9-0.7-2.1-1.1-3.4-1.1c-2.9,0-5.3,2.4-5.3,5.1c0,2.7,2.4,5.1,5.3,5.1c1.3,0,2.5-0.5,3.4-1.1
		c0.8-0.6,2-0.5,2.7,0.4c0.6,0.8,0.4,1.9-0.4,2.6c-1.5,1.1-3.5,1.9-5.7,1.9C202.3,130.7,198.1,126.8,198.1,121.9z"/>
	<path id="XMLID_33_" class="st1" d="M223.6,108.5c0,1.1-0.8,2-1.9,2c-1.1,0-1.9-0.9-1.9-2v-0.7c0-1.1,0.9-1.9,1.9-1.9
		c1.1,0,1.9,0.9,1.9,1.9V108.5z M223.6,114.9v13.9c0,1.1-0.8,1.9-1.9,1.9c-1.1,0-1.9-0.9-1.9-1.9v-13.9c0-1.1,0.9-2,1.9-2
		C222.8,113,223.6,113.8,223.6,114.9z"/>
	<path id="XMLID_36_" class="st1" d="M231.3,128.1c-1.5-1.6-2.5-3.8-2.5-6.3c0-2.4,0.9-4.5,2.5-6.2c1.6-1.7,3.7-2.7,6.1-2.7
		c2.3,0,4.5,1,5.9,2.7c1.6,1.7,2.5,3.8,2.5,6.2c0,2.5-0.9,4.7-2.5,6.3c-1.5,1.7-3.6,2.7-5.9,2.7C235,130.8,232.9,129.8,231.3,128.1z
		 M232.7,121.9c0,1.5,0.5,2.8,1.3,3.8c0.9,0.9,2.1,1.3,3.4,1.3c1.2,0,2.4-0.5,3.3-1.3c0.9-1,1.4-2.2,1.4-3.8c0-1.5-0.5-2.7-1.4-3.7
		c-0.9-0.8-2-1.4-3.3-1.4c-1.4,0-2.5,0.6-3.4,1.4C233.2,119.1,232.7,120.4,232.7,121.9z"/>
	<path id="XMLID_39_" class="st1" d="M251,125.6c0.6-0.9,1.9-1,2.7-0.3c0.9,0.8,2.5,1.6,3.9,1.6c1,0,1.8-0.3,2.4-0.7
		c0.5-0.4,0.6-0.8,0.6-1.1c0-0.2,0-0.2-0.1-0.4c0-0.1-0.2-0.2-0.5-0.4c-0.5-0.4-1.6-0.7-2.8-1h0c-1.1-0.2-2.2-0.5-3.1-0.9
		c-1-0.5-1.8-1.1-2.5-2.1c-0.4-0.6-0.6-1.4-0.6-2.2c0-1.6,0.9-3,2.1-3.9c1.2-0.9,2.7-1.3,4.4-1.3c2.5,0,4.2,1.2,5.3,2
		c0.9,0.6,1.1,1.7,0.6,2.6c-0.6,0.9-1.7,1.1-2.6,0.5c-1.1-0.7-2.1-1.3-3.3-1.3c-0.9,0-1.7,0.3-2.1,0.6c-0.5,0.3-0.6,0.6-0.6,0.8
		c0,0.1,0,0.2,0.1,0.3c0,0.1,0.1,0.2,0.4,0.4c0.5,0.3,1.4,0.6,2.6,0.9l0,0h0c1.2,0.2,2.3,0.5,3.3,1c1,0.4,1.9,1.1,2.5,2.1
		c0.4,0.7,0.7,1.5,0.7,2.3c0,1.7-1,3.2-2.2,4.1c-1.3,0.9-2.9,1.4-4.6,1.4c-2.8,0-4.9-1.3-6.3-2.5C250.5,127.6,250.4,126.4,251,125.6
		z"/>
</g>
<g id="XMLID_9_">
	<path id="XMLID_41_" class="st1" d="M62,143.9c0-4.8,3.7-8.6,8.3-8.6c4.4,0,7.9,3.5,8.3,8v0v0.1c0,0.5-0.4,0.8-0.8,0.8H63.7
		c0.2,3.7,3.1,6.6,6.7,6.6c2.3,0,4.4-1.2,5.5-3.1c0.2-0.4,0.8-0.5,1.1-0.3c0.4,0.3,0.5,0.8,0.3,1.2c-1.5,2.3-4,3.9-6.9,3.9
		C65.7,152.5,62,148.6,62,143.9z M63.8,142.6h13c-0.6-3.2-3.3-5.6-6.4-5.6C67.1,137,64.4,139.3,63.8,142.6z"/>
	<path id="XMLID_44_" class="st1" d="M84.8,128.8c0-0.5,0.4-0.8,0.8-0.8c0.5,0,0.9,0.4,0.9,0.8v22.8c0,0.5-0.4,0.8-0.9,0.8
		c-0.5,0-0.8-0.4-0.8-0.8V128.8z"/>
	<path id="XMLID_46_" class="st1" d="M128.3,142.3c-0.1-2.9-2.4-5.3-5.3-5.3c-2.9,0-5.3,2.4-5.3,5.3v9.4v0.1c0,0,0,0.1,0,0.1v0.1
		c-0.1,0.2-0.2,0.4-0.4,0.5c-0.1,0.1-0.3,0.1-0.4,0.1h-0.1h-0.1c0,0-0.1,0-0.1,0c-0.1,0-0.1-0.1-0.2-0.1c0,0-0.1,0-0.1-0.1l-0.1-0.1
		c0,0,0-0.1-0.1-0.1c0,0,0,0,0-0.1c0,0,0,0,0-0.1c0,0,0-0.1,0-0.1v-0.1v-0.1v-9.4c0-2.9-2.3-5.3-5.3-5.3c-2.9,0-5.3,2.4-5.3,5.3v9.4
		c0,0.3-0.1,0.5-0.4,0.7c0,0-0.1,0.1-0.2,0.1c0,0-0.1,0-0.1,0h-0.1h-0.1c-0.3,0-0.6-0.3-0.7-0.6v-0.2v-9.4V142v-5.9
		c0-0.5,0.4-0.8,0.8-0.8c0.5,0,0.8,0.4,0.8,0.8v1.6c1.3-1.5,3.2-2.5,5.3-2.5c2.7,0,4.9,1.5,6.1,3.6c1.2-2.2,3.5-3.6,6.2-3.6
		c3.9,0,7,3.1,7,7v9.4c0,0.4-0.4,0.8-0.8,0.8c-0.5,0-0.8-0.4-0.8-0.8V142.3z"/>
	<path id="XMLID_48_" class="st1" d="M144.4,135.3c4.5,0,8.1,3.9,8.1,8.6c0,4.7-3.6,8.6-8.1,8.6c-4.5,0-8.1-3.9-8.1-8.6
		C136.3,139.2,139.9,135.3,144.4,135.3z M144.4,150.8c3.5,0,6.4-3.1,6.4-6.9c0-3.8-2.9-6.9-6.4-6.9c-3.5,0-6.4,3.1-6.4,6.9
		C138,147.7,140.9,150.8,144.4,150.8z"/>
	<path id="XMLID_51_" class="st1" d="M158.3,136.2c0-0.5,0.4-0.8,0.9-0.8c0.4,0,0.8,0.4,0.8,0.8v3.8c0.1-0.1,0.1-0.3,0.2-0.4
		c1.3-2,3.6-4.2,6.9-4.2c0.5,0,0.8,0.4,0.8,0.8c0,0.5-0.4,0.8-0.8,0.8c-2.2,0-3.8,1.3-5,2.8c-1.2,1.5-1.8,3.3-2.1,4
		c-0.1,0.1-0.1,0.2-0.1,0.3v7.5c0,0.5-0.4,0.8-0.8,0.8c-0.5,0-0.9-0.3-0.9-0.8V136.2z"/>
	<path id="XMLID_53_" class="st1" d="M171.6,143.9c0-4.8,3.9-8.5,8.8-8.5c2,0,4,0.7,5.5,1.9c0.4,0.2,0.4,0.8,0.1,1.2
		c-0.3,0.3-0.8,0.4-1.2,0.1c-1.2-1-2.8-1.5-4.4-1.5c-4,0-7.1,3.1-7.1,6.9c0,3.9,3.2,6.9,7.1,6.9c1.6,0,3.2-0.6,4.4-1.5
		c0.4-0.3,0.9-0.2,1.2,0.1c0.3,0.4,0.2,0.9-0.2,1.2c-1.4,1.1-3.4,1.8-5.4,1.8C175.5,152.5,171.6,148.7,171.6,143.9z"/>
	<path id="XMLID_55_" class="st1" d="M205.4,142.1c0-3-2.5-5-5.5-5c-3,0-5.4,2-5.4,5v9.6v0.1c0,0.1,0,0.1,0,0.1c0,0.1,0,0.1-0.1,0.1
		c-0.1,0.2-0.3,0.4-0.5,0.4c0,0,0,0-0.1,0h-0.1h-0.1c-0.2,0-0.5-0.1-0.7-0.3c-0.1-0.1-0.1-0.2-0.1-0.3c0-0.1,0-0.2,0-0.3v-9.6v-0.3
		v-13c0-0.5,0.4-0.8,0.8-0.8c0.5,0,0.9,0.4,0.9,0.8v9c1.3-1.5,3.3-2.5,5.4-2.5c4,0,7.2,2.8,7.2,6.8v9.6c0,0.5-0.4,0.8-0.9,0.8
		c-0.5,0-0.8-0.4-0.8-0.8V142.1z"/>
	<path id="XMLID_57_" class="st1" d="M213,143.9c0-4.8,3.7-8.6,8.3-8.6c4.4,0,7.9,3.5,8.3,8v0v0.1c0,0.5-0.4,0.8-0.8,0.8h-14.1
		c0.2,3.7,3.1,6.6,6.7,6.6c2.3,0,4.4-1.2,5.5-3.1c0.2-0.4,0.8-0.5,1.1-0.3c0.4,0.3,0.5,0.8,0.3,1.2c-1.5,2.3-4,3.9-6.9,3.9
		C216.7,152.5,213,148.6,213,143.9z M214.8,142.6h13c-0.6-3.2-3.3-5.6-6.4-5.6C218.1,137,215.4,139.3,214.8,142.6z"/>
</g>
</svg>
