<?xml version="1.0" encoding="utf-8"?>
<!-- Generator: Adobe Illustrator 19.0.0, SVG Export Plug-In . SVG Version: 6.00 Build 0)  -->
<svg version="1.1" id="Capa_1" xmlns="http://www.w3.org/2000/svg" xmlns:xlink="http://www.w3.org/1999/xlink" x="0px" y="0px"
	 viewBox="0 0 395 60" style="enable-background:new 0 0 395 60;" xml:space="preserve">
<style type="text/css">
	.st0{fill:#F7931E;}
	.st1{fill:#575756;}
</style>
<g id="Logo_HORIZONTAL_6_">
	<g id="XMLID_1044_">
		<path id="XMLID_1047_" class="st0" d="M161.9,39c-0.2-1.1-1.2-1.5-1.2-1.5l-4.4,0c-4.4-0.1-3.1,0.1-7.6,2.4
			c-4.5,2.4-7.3-0.3-8.6-1.4c-1.3-1.1-2.8-1-2.8-1c-5.4-0.5-6.2,6.6-6.2,6.6c0.8,0.1,0.7,2.1,0.7,2.1c0.1,0.7-0.3,0.7-0.3,0.7
			s-5.7,0.1-6.7,0c-1-0.1-0.9-0.4-1-0.6c-0.2-0.1,0-1.4,0.1-1.7c0.1-0.4,0.5-0.5,0.5-0.5c0.4-4.2,2.9-9.7,6-11.8
			c3.1-2.1,4.9-2.1,7-2.5c2.2-0.4,2.5-2.4,2.5-2.4l0.1-3.5c-0.7,0-0.6-1.1-0.6-1.1c-0.1-1.4,0.6-1.4,0.6-1.4h1.2
			c-0.5-0.7,0.4-1,0.4-1h1.2v-3.7c-0.6-0.3-1-0.7-1-0.7l-4.1,0.9c-3.9,1-4.1-2.9-4.1-2.9c0.2-3.4,3.5-3.3,3.5-3.3l4.7,1.1
			c0,0,0.6-1,3-1.1c2.4-0.2,3.7,1.1,3.7,1.1l4.6-1.1c3.1-0.1,3.5,3.1,3.5,3.1c-0.1,3.9-4,3.3-4,3.3l-4.3-1c-0.2,0.3-1,0.6-1,0.6v3.6
			l1.4,0c0.8,0.5,0.3,1,0.3,1s0.7,0,1.4,0c0.7,0,0.5,1.9,0.5,1.9c0,0.5-0.4,0.6-0.4,0.6l0.1,3.3c0.4,2.7,2.7,2.9,2.7,2.9l7.4,0
			c1.3-0.7,1.1-1.5,1.1-1.5l4.2,0V15.5L140.2,0.7l-25.7,14.8l0,29.5l25.7,14.8L165.9,45v-5.9L161.9,39z"/>
		<path id="XMLID_1046_" class="st0" d="M27.3,0.7L1.6,15.5V45l7.9,4.5l5.7-10.7c0.7-1.2,2-1.9,3.3-1.7c2.1-3.3,3.6-2.7,3.6-2.7
			s14.2,4.7,16.9,5.4c2.7,0.6,3.9-3.6,5.8-7c0.8-1.6-0.4-3.1-2-4.2l-1,1.9c-0.9,1.6-2.9,2.2-4.5,1.4L17,21.3
			c-1.6-0.8-2.2-2.8-1.4-4.4l2.1-3.9c0.9-1.6,2.9-2.2,4.5-1.4l20.2,10.6c1.6,0.8,2.2,2.8,1.4,4.4l-0.6,1.1c1.9,1.4,3.6,3.2,2.6,5
			c-1.8,3.5-3.7,9-6.4,8.3C36.7,40.4,22,35.6,22,35.6s-0.8-0.5-2.4,1.8c0,0,0,0,0.1,0l0.4,0.2c1.6,0.9,2.2,2.8,1.4,4.4L15.5,53
			l11.8,6.8L53,45l0-29.5L27.3,0.7z"/>
		<path id="XMLID_1045_" class="st0" d="M88.9,45.5c-0.2-0.3,0.3-0.6,0.3-0.6s-6.2-9.8-6.3-10.1c-0.1-0.3-0.5,0-0.6,0.1
			c-0.2,0.1-0.7,0-0.9-0.2c-0.2-0.2-0.2-0.4-1.8-2.9c-1.6-2.5-4.3-1.4-6-0.6c-1.7,0.8-1.5,2-1.2,2.6c0.3,0.6-0.1,1.1-0.1,1.1
			s-3.1,1.9-3.4,2c-0.3,0.1-0.9-0.2-0.9-0.2s-3.6-5.9-3.9-6.5c-0.4-0.6,0.1-0.9,0.1-0.9l3.2-2c0.2-0.2,0.5-0.1,0.5-0.1
			c0.7,0.5,2.7,0.7,3.4,0.6c0.7-0.1,1-2.3,1-2.3c-0.5-1.7,4.4-4.4,9.9-6.9c5.5-2.4,11.9-2.6,13.5-1.7c1.6,0.9-0.7,1-0.7,1
			c-2.7,0.1-4,0.9-6.4,2.6c-2.4,1.6-3,4.5-3.1,5.5c-0.1,0.9,1.7,4,2.2,4.6c0.5,0.5,0.4,1.2,0,1.3c-0.4,0.1-0.2,0.6-0.2,0.6l6,10.1
			c0.4-0.3,0.7,0.1,0.7,0.1s2.4,3.6,5.5,8.2l10.2-5.8V15.5L83.9,0.7L58.1,15.5V45l25.7,14.8l9.8-5.6C91,49.4,89,45.7,88.9,45.5z"/>
	</g>
	<g id="XMLID_989_">
		<path id="XMLID_1042_" class="st1" d="M188.5,20.6C188.5,20.6,188.5,20.7,188.5,20.6v7.8c0,0.9-0.8,1.7-1.7,1.7
			c-0.9,0-1.8-0.8-1.8-1.7v-7.7c0,0,0-0.1,0-0.1c0-1.8-1.5-3.3-3.4-3.3c-1.8,0-3.3,1.5-3.3,3.4v7.7c0,0.1,0,0.2,0,0.2
			c0,0,0,0.1,0,0.1c0,0.1,0,0.1-0.1,0.2c0,0,0,0.1,0,0.2c-0.3,0.6-0.9,1-1.6,1c-0.1,0-0.2,0-0.3,0c-0.8-0.2-1.4-0.8-1.4-1.7v-7.7
			c0,0,0,0,0,0v-5.1c0-1,0.8-1.8,1.7-1.8c0.7,0,1.3,0.4,1.6,1c1-0.6,2.3-1,3.5-1c2.1,0,3.9,0.8,5.1,2.3c1.2-1.4,3.1-2.3,5.1-2.3
			c3.8,0,6.8,3.1,6.8,6.9v7.7c0,0.9-0.8,1.7-1.7,1.7c-0.9,0-1.8-0.8-1.8-1.7v-7.7c0-1.9-1.5-3.4-3.3-3.4
			C190.1,17.3,188.6,18.8,188.5,20.6z"/>
		<path id="XMLID_1040_" class="st1" d="M212.4,30.2c-3.7,0-6.8-3.1-6.8-6.8v-7.8c0-0.9,0.8-1.7,1.7-1.7c1,0,1.7,0.8,1.7,1.7v7.8
			c0,1.9,1.5,3.3,3.3,3.3c1.9,0,3.4-1.5,3.4-3.3v-7.8c0-0.9,0.7-1.7,1.7-1.7c0.9,0,1.8,0.8,1.8,1.7v7.8
			C219.3,27.1,216.2,30.2,212.4,30.2z"/>
		<path id="XMLID_1036_" class="st1" d="M227,7.3c1,0,1.8,0.8,1.8,1.8v19.3c0,1-0.8,1.8-1.8,1.8c-1,0-1.8-0.8-1.8-1.8V9.1
			C225.2,8.1,226,7.3,227,7.3z"/>
		<path id="XMLID_1034_" class="st1" d="M240.5,15.7c0,1-0.8,1.8-1.8,1.8h-0.8v9.1c1,0,1.8,0.8,1.8,1.8c0,1-0.8,1.8-1.8,1.8
			c-2,0-3.6-1.6-3.6-3.6v-9.1h-0.9c-1,0-1.8-0.8-1.8-1.8c0-1,0.8-1.8,1.8-1.8h0.9V9.1c0-1,0.8-1.8,1.8-1.8c1,0,1.8,0.8,1.8,1.8v4.7
			h0.8C239.6,13.9,240.5,14.6,240.5,15.7z"/>
		<path id="XMLID_1031_" class="st1" d="M249.7,9.8c0,1-0.8,1.8-1.8,1.8c-1,0-1.8-0.8-1.8-1.8V9.1c0-1,0.8-1.8,1.8-1.8
			c1,0,1.8,0.8,1.8,1.8V9.8z M249.7,15.7v12.7c0,1-0.8,1.8-1.8,1.8c-1,0-1.8-0.8-1.8-1.8V15.7c0-1,0.8-1.8,1.8-1.8
			C249,13.9,249.7,14.6,249.7,15.7z"/>
		<path id="XMLID_1029_" class="st1" d="M254.6,25.5c0.6-0.8,1.7-0.9,2.5-0.3c0.8,0.7,2.3,1.5,3.6,1.4c0.9,0,1.7-0.3,2.2-0.6
			c0.5-0.4,0.6-0.7,0.6-1c0-0.2,0-0.2-0.1-0.3c0-0.1-0.2-0.2-0.4-0.4c-0.5-0.3-1.4-0.7-2.6-0.9h0c-1-0.2-2-0.5-2.8-0.8
			c-0.9-0.4-1.7-1-2.3-1.9c-0.4-0.6-0.6-1.3-0.6-2.1c0-1.5,0.8-2.8,1.9-3.6c1.1-0.8,2.5-1.2,4-1.2c2.3,0,3.9,1.1,4.9,1.8
			c0.8,0.5,1,1.6,0.5,2.4c-0.5,0.8-1.6,1-2.4,0.5c-1-0.7-2-1.2-3-1.2c-0.8,0-1.5,0.3-2,0.6c-0.4,0.3-0.5,0.6-0.5,0.8
			c0,0.1,0,0.2,0.1,0.3c0,0.1,0.1,0.2,0.4,0.3c0.4,0.3,1.3,0.6,2.4,0.8l0,0h0c1.1,0.2,2.1,0.5,3,0.9c0.9,0.4,1.8,1,2.3,1.9
			c0.4,0.7,0.6,1.4,0.6,2.2c0,1.6-0.9,2.9-2.1,3.8c-1.2,0.8-2.6,1.3-4.2,1.3c-2.5,0-4.5-1.2-5.8-2.3C254.1,27.3,254,26.2,254.6,25.5
			z"/>
		<path id="XMLID_1026_" class="st1" d="M270.3,22c0-4.4,3.5-8.2,8-8.2c4.2,0,7.6,3.2,7.9,7.6c0,0,0,0.1,0,0.2c0,0.1,0,0.2,0,0.3
			c-0.1,0.8-0.8,1.3-1.7,1.3H274c0.2,0.8,0.5,1.6,1.1,2.2c0.7,0.8,2,1.4,3.1,1.5c1.2,0.1,2.6-0.2,3.4-0.8c0.7-0.7,2-0.6,2.5-0.1
			c0.4,0.5,0.8,1.4,0,2.1c-1.6,1.5-3.5,2.2-5.8,2.2C273.8,30.2,270.3,26.5,270.3,22z M273.8,20.4h9.2c-0.3-1.3-2-3.2-4.8-3.5
			C275.5,17.1,274.1,19.1,273.8,20.4z"/>
		<path id="XMLID_1024_" class="st1" d="M300.7,15.6c0,0.9-0.8,1.7-1.7,1.7c-0.8,0-1.4,0.2-2,0.6c-0.6,0.4-1.1,0.9-1.5,1.6
			c-0.8,1-1.2,2.3-1.3,2.7v6.2c0,0.9-0.8,1.7-1.8,1.7c-0.9,0-1.7-0.8-1.7-1.7V15.6c0-0.9,0.8-1.7,1.7-1.7c1,0,1.8,0.8,1.8,1.7v0.2
			c0.2-0.2,0.5-0.5,0.7-0.7c1.1-0.7,2.5-1.3,4.1-1.3C300,13.9,300.7,14.6,300.7,15.6z"/>
		<path id="XMLID_1022_" class="st1" d="M317.9,16.5l-5.4,12.7c0,0.1-0.1,0.2-0.1,0.2c0,0,0,0,0,0c-0.1,0.1-0.1,0.2-0.2,0.2
			c0,0,0,0,0,0c-0.1,0.1-0.1,0.1-0.2,0.2c0,0,0,0,0,0c-0.1,0.1-0.1,0.1-0.2,0.2c0,0,0,0-0.1,0c0,0,0,0,0,0c-0.1,0-0.2,0-0.3,0.1
			c0,0,0,0-0.1,0c-0.1,0-0.2,0-0.3,0c-0.1,0-0.2,0-0.3,0c0,0,0,0-0.1,0c-0.1,0-0.2-0.1-0.3-0.1c0,0,0,0,0,0c-0.1,0-0.1,0-0.1,0
			c-0.1,0-0.2-0.1-0.3-0.2c0,0,0,0,0,0c-0.1-0.1-0.1-0.1-0.2-0.2c0,0,0,0-0.1,0c0-0.1-0.1-0.2-0.2-0.2c0,0,0,0,0,0
			c-0.1,0-0.1-0.1-0.1-0.2l-5.3-12.7c-0.4-0.9,0-1.8,0.9-2.2c0.8-0.4,1.8,0.1,2.2,0.9l3.8,8.9l3.8-8.9c0.4-0.9,1.3-1.3,2.2-0.9
			C317.9,14.6,318.3,15.6,317.9,16.5z"/>
		<path id="XMLID_1019_" class="st1" d="M327.6,9.8c0,1-0.8,1.8-1.8,1.8c-1,0-1.8-0.8-1.8-1.8V9.1c0-1,0.8-1.8,1.8-1.8
			c1,0,1.8,0.8,1.8,1.8V9.8z M327.6,15.7v12.7c0,1-0.8,1.8-1.8,1.8c-1,0-1.8-0.8-1.8-1.8V15.7c0-1,0.8-1.8,1.8-1.8
			C326.8,13.9,327.6,14.6,327.6,15.7z"/>
		<path id="XMLID_1017_" class="st1" d="M332,22.1c0-4.5,3.8-8.2,8.3-8.2c2,0,3.8,0.7,5.2,1.8c0.8,0.6,0.9,1.7,0.4,2.4
			c-0.7,0.8-1.7,0.9-2.5,0.3c-0.8-0.6-1.9-1-3.1-1c-2.6,0-4.8,2.2-4.8,4.7s2.2,4.7,4.8,4.7c1.2,0,2.3-0.4,3.1-1
			c0.7-0.6,1.8-0.4,2.5,0.4c0.5,0.7,0.4,1.8-0.4,2.4c-1.4,1-3.2,1.7-5.2,1.7C335.8,30.2,332,26.5,332,22.1z"/>
		<path id="XMLID_1014_" class="st1" d="M355.4,9.8c0,1-0.8,1.8-1.8,1.8c-1,0-1.8-0.8-1.8-1.8V9.1c0-1,0.8-1.8,1.8-1.8
			c1,0,1.8,0.8,1.8,1.8V9.8z M355.4,15.7v12.7c0,1-0.8,1.8-1.8,1.8c-1,0-1.8-0.8-1.8-1.8V15.7c0-1,0.8-1.8,1.8-1.8
			C354.6,13.9,355.4,14.6,355.4,15.7z"/>
		<path id="XMLID_1011_" class="st1" d="M362.5,27.8c-1.4-1.4-2.3-3.5-2.3-5.8c0-2.2,0.8-4.1,2.3-5.7c1.5-1.5,3.4-2.5,5.6-2.5
			c2.2,0,4.1,0.9,5.5,2.5c1.5,1.6,2.3,3.5,2.3,5.7c0,2.3-0.8,4.3-2.3,5.8c-1.3,1.5-3.3,2.5-5.5,2.5C365.9,30.3,364,29.3,362.5,27.8z
			 M363.8,22.1c0,1.4,0.4,2.5,1.2,3.5c0.8,0.8,1.9,1.2,3.1,1.2c1.1,0,2.2-0.4,3-1.2c0.8-0.9,1.3-2.1,1.3-3.5c0-1.3-0.5-2.5-1.3-3.4
			c-0.8-0.7-1.9-1.2-3-1.2c-1.2,0-2.3,0.5-3.1,1.2C364.2,19.5,363.8,20.7,363.8,22.1z"/>
		<path id="XMLID_1009_" class="st1" d="M380.6,25.5c0.6-0.8,1.7-0.9,2.5-0.3c0.8,0.7,2.3,1.5,3.6,1.4c0.9,0,1.7-0.3,2.2-0.6
			c0.5-0.4,0.6-0.7,0.6-1c0-0.2,0-0.2-0.1-0.3c0-0.1-0.2-0.2-0.4-0.4c-0.5-0.3-1.4-0.7-2.6-0.9h0c-1-0.2-2-0.5-2.8-0.8
			c-0.9-0.4-1.7-1-2.3-1.9c-0.4-0.6-0.6-1.3-0.6-2.1c0-1.5,0.8-2.8,1.9-3.6c1.1-0.8,2.5-1.2,4-1.2c2.3,0,3.9,1.1,4.9,1.8
			c0.8,0.5,1,1.6,0.5,2.4c-0.5,0.8-1.6,1-2.4,0.5c-1-0.7-2-1.2-3-1.2c-0.8,0-1.5,0.3-2,0.6c-0.4,0.3-0.5,0.6-0.5,0.8
			c0,0.1,0,0.2,0.1,0.3c0,0.1,0.1,0.2,0.4,0.3c0.4,0.3,1.3,0.6,2.4,0.8l0,0h0c1.1,0.2,2.1,0.5,3,0.9c0.9,0.4,1.8,1,2.3,1.9
			c0.4,0.7,0.6,1.4,0.6,2.2c0,1.6-0.9,2.9-2.1,3.8c-1.2,0.8-2.6,1.3-4.2,1.3c-2.5,0-4.5-1.2-5.8-2.3
			C380.2,27.3,380.1,26.2,380.6,25.5z"/>
		<path id="XMLID_1006_" class="st1" d="M174.9,45.2c0-4.4,3.5-8,7.8-8c4.1,0,7.4,3.3,7.7,7.4v0v0.1c0,0.4-0.4,0.7-0.8,0.7h-13.1
			c0.2,3.5,2.9,6.1,6.2,6.1c2.1,0,4.1-1.1,5.2-2.9c0.2-0.4,0.7-0.5,1-0.3c0.4,0.3,0.5,0.7,0.3,1.1c-1.4,2.2-3.8,3.6-6.5,3.6
			C178.4,53.2,174.9,49.6,174.9,45.2z M176.6,43.9h12.1c-0.5-3-3.1-5.2-6-5.2C179.7,38.7,177.1,40.9,176.6,43.9z"/>
		<path id="XMLID_1004_" class="st1" d="M196.2,31.1c0-0.4,0.4-0.8,0.8-0.8c0.5,0,0.8,0.4,0.8,0.8v21.3c0,0.4-0.4,0.8-0.8,0.8
			c-0.4,0-0.8-0.4-0.8-0.8V31.1z"/>
		<path id="XMLID_1002_" class="st1" d="M236.8,43.7c-0.1-2.7-2.2-5-5-5c-2.7,0-4.9,2.3-4.9,5v8.7v0.1c0,0,0,0.1,0,0.1v0.1
			c-0.1,0.2-0.2,0.3-0.4,0.4c-0.1,0.1-0.3,0.1-0.4,0.1H226h-0.1c0,0-0.1,0-0.1,0c-0.1,0-0.1-0.1-0.2-0.1c0,0-0.1,0-0.1-0.1l-0.1-0.1
			c0,0,0-0.1-0.1-0.1c0,0,0,0,0-0.1c0,0,0,0,0-0.1c0,0,0-0.1,0-0.1v-0.1v-0.1v-8.7c0-2.7-2.2-5-4.9-5c-2.7,0-4.9,2.3-4.9,5v8.7
			c0,0.3-0.1,0.5-0.4,0.6c0,0-0.1,0.1-0.2,0.1c0,0-0.1,0-0.1,0h-0.1h-0.1c-0.3,0-0.6-0.3-0.7-0.6v-0.2v-8.7v-0.3v-5.5
			c0-0.4,0.4-0.8,0.8-0.8c0.5,0,0.8,0.3,0.8,0.8v1.5c1.2-1.4,2.9-2.3,4.9-2.3c2.5,0,4.6,1.4,5.7,3.4c1.1-2,3.3-3.4,5.8-3.4
			c3.6,0,6.5,2.9,6.5,6.5v8.7c0,0.4-0.3,0.8-0.8,0.8c-0.4,0-0.8-0.4-0.8-0.8V43.7z"/>
		<path id="XMLID_999_" class="st1" d="M251.8,37.2c4.2,0,7.6,3.7,7.6,8c0,4.3-3.4,8-7.6,8c-4.2,0-7.6-3.7-7.6-8
			C244.2,40.8,247.6,37.2,251.8,37.2z M251.8,51.6c3.3,0,6-2.9,6-6.4c0-3.6-2.7-6.5-6-6.5c-3.3,0-6,2.9-6,6.5
			C245.8,48.7,248.5,51.6,251.8,51.6z"/>
		<path id="XMLID_997_" class="st1" d="M264.7,38c0-0.5,0.4-0.8,0.8-0.8c0.4,0,0.8,0.3,0.8,0.8v3.5c0.1-0.1,0.1-0.3,0.2-0.4
			c1.2-1.9,3.3-3.9,6.4-3.9c0.4,0,0.8,0.3,0.8,0.8c0,0.4-0.4,0.8-0.8,0.8c-2.1,0-3.5,1.2-4.6,2.6c-1.1,1.4-1.7,3.1-1.9,3.7
			c-0.1,0.1-0.1,0.2-0.1,0.3v7c0,0.5-0.4,0.8-0.8,0.8c-0.5,0-0.8-0.3-0.8-0.8V38z"/>
		<path id="XMLID_995_" class="st1" d="M277.1,45.1c0-4.4,3.7-8,8.2-8c1.9,0,3.7,0.7,5.1,1.8c0.3,0.2,0.4,0.7,0.1,1.1
			c-0.3,0.3-0.7,0.4-1.1,0.1c-1.1-0.9-2.6-1.4-4.1-1.4c-3.7,0-6.7,2.9-6.7,6.4c0,3.6,2.9,6.5,6.7,6.5c1.5,0,3-0.5,4.1-1.4
			c0.4-0.3,0.8-0.2,1.1,0.1c0.3,0.4,0.2,0.8-0.2,1.1c-1.3,1-3.1,1.7-5,1.7C280.7,53.2,277.1,49.6,277.1,45.1z"/>
		<path id="XMLID_993_" class="st1" d="M308.6,43.5c0-2.8-2.3-4.7-5.1-4.7c-2.8,0-5.1,1.9-5.1,4.7v8.9v0.1c0,0.1,0,0.1,0,0.1
			c0,0.1,0,0.1-0.1,0.1c-0.1,0.2-0.3,0.3-0.5,0.4c0,0,0,0-0.1,0h-0.1h-0.1c-0.2,0-0.5-0.1-0.6-0.3c-0.1-0.1-0.1-0.2-0.1-0.3
			c0-0.1,0-0.2,0-0.3v-8.9v-0.3V31.1c0-0.4,0.4-0.8,0.8-0.8c0.5,0,0.8,0.4,0.8,0.8v8.4c1.2-1.4,3-2.4,5.1-2.4c3.7,0,6.7,2.6,6.7,6.3
			v8.9c0,0.4-0.4,0.8-0.8,0.8c-0.4,0-0.8-0.4-0.8-0.8V43.5z"/>
		<path id="XMLID_990_" class="st1" d="M315.8,45.2c0-4.4,3.5-8,7.8-8c4.1,0,7.4,3.3,7.7,7.4v0v0.1c0,0.4-0.4,0.7-0.8,0.7h-13.1
			c0.2,3.5,2.9,6.1,6.2,6.1c2.1,0,4.1-1.1,5.2-2.9c0.2-0.4,0.7-0.5,1-0.3c0.4,0.3,0.5,0.7,0.3,1.1c-1.4,2.2-3.8,3.6-6.5,3.6
			C319.2,53.2,315.8,49.6,315.8,45.2z M317.4,43.9h12.1c-0.5-3-3.1-5.2-6-5.2C320.5,38.7,318,40.9,317.4,43.9z"/>
	</g>
</g>
</svg>
