<?xml version="1.0" encoding="utf-8"?>
<!-- Generator: Adobe Illustrator 19.0.0, SVG Export Plug-In . SVG Version: 6.00 Build 0)  -->
<svg version="1.1" id="Capa_1" xmlns="http://www.w3.org/2000/svg" xmlns:xlink="http://www.w3.org/1999/xlink" x="0px" y="0px"
	 viewBox="0 0 292 106.3" style="enable-background:new 0 0 292 106.3;" xml:space="preserve">
<style type="text/css">
	.st0{fill:#F7931E;}
</style>
<g id="XMLID_5_">
	<path id="XMLID_6_" class="st0" d="M274.9,67.8c-0.3-1.8-1.9-2.6-1.9-2.6l-7.3-0.1c-7.2-0.2-5.1,0.1-12.5,4.1
		c-7.4,3.9-12-0.4-14.2-2.3c-2.2-1.9-4.6-1.7-4.6-1.7c-9-0.8-10.2,10.9-10.2,10.9c1.3,0.1,1.1,3.5,1.1,3.5c0.1,1.1-0.6,1.1-0.6,1.1
		s-9.5,0.2-11.1,0c-1.6-0.2-1.4-0.7-1.7-1c-0.3-0.2,0-2.2,0.2-2.9c0.2-0.6,0.8-0.9,0.8-0.9c0.6-7,4.9-16.1,10-19.6
		c5.1-3.5,8-3.6,11.6-4.2c3.6-0.7,4.1-4,4.1-4l0.1-5.8c-1.2-0.1-0.9-1.8-0.9-1.8c-0.2-2.4,1.1-2.3,1.1-2.3h2
		c-0.8-1.2,0.6-1.7,0.6-1.7h2v-6.1c-0.9-0.5-1.6-1.2-1.6-1.2l-6.8,1.6c-6.4,1.6-6.8-4.8-6.8-4.8c0.3-5.7,5.7-5.5,5.7-5.5l7.8,1.9
		c0,0,1-1.6,4.9-1.9c3.9-0.3,6,1.9,6,1.9l7.6-1.9c5.2-0.1,5.8,5.1,5.8,5.1c-0.1,6.5-6.6,5.5-6.6,5.5l-7.1-1.6
		c-0.4,0.5-1.6,1.1-1.6,1.1v5.9l2.4,0.1c1.4,0.8,0.5,1.6,0.5,1.6s1.2,0.1,2.3,0.1c1.1,0,0.8,3.1,0.8,3.1c-0.1,0.8-0.7,1-0.7,1
		l0.2,5.5c0.7,4.5,4.4,4.8,4.4,4.8l12.3,0.1c2.1-1.2,1.9-2.6,1.9-2.6l6.9,0.1V28.6L239.2,4l-42.5,24.5l0,49.1l42.5,24.5l42.5-24.5
		v-9.8L274.9,67.8z"/>
	<path id="XMLID_7_" class="st0" d="M52.4,4L9.9,28.6v49.1l13,7.5l9.4-17.7c1.1-2,3.3-3.1,5.5-2.9c3.4-5.5,5.9-4.4,5.9-4.4
		s23.6,7.8,28,8.9c4.5,1.1,6.5-6,9.5-11.7c1.4-2.6-0.6-5.1-3.3-7l-1.7,3.2c-1.4,2.7-4.7,3.7-7.4,2.3L35.5,38.2
		c-2.7-1.4-3.7-4.7-2.3-7.4l3.4-6.4c1.4-2.7,4.7-3.7,7.4-2.3l33.4,17.7c2.7,1.4,3.7,4.7,2.3,7.4l-1,1.8c3.1,2.3,5.9,5.3,4.4,8.3
		C80,63,77,72.2,72.5,71.1c-4.5-1.1-28.9-9-28.9-9s-1.3-0.8-4,3c0,0,0.1,0,0.1,0l0.6,0.3c2.7,1.4,3.7,4.7,2.3,7.4L33,91l19.4,11.2
		L95,77.7l0-49.1L52.4,4z"/>
	<path id="XMLID_8_" class="st0" d="M154.3,78.6c-0.3-0.5,0.5-0.9,0.5-0.9s-10.2-16.2-10.4-16.7c-0.2-0.5-0.8,0-1.1,0.1
		c-0.3,0.1-1.2,0-1.4-0.3c-0.3-0.3-0.4-0.6-3-4.8c-2.6-4.1-7-2.3-9.9-0.9c-2.8,1.4-2.4,3.3-1.9,4.2c0.5,1-0.2,1.8-0.2,1.8
		s-5.1,3.2-5.6,3.4c-0.5,0.2-1.5-0.4-1.5-0.4s-5.9-9.8-6.5-10.8c-0.6-1,0.1-1.6,0.1-1.6l5.2-3.4c0.4-0.3,0.9-0.2,0.9-0.2
		c1.2,0.9,4.5,1.2,5.6,1c1.1-0.2,1.6-3.9,1.6-3.9c-0.8-2.8,7.3-7.4,16.4-11.4c9.1-4,19.7-4.3,22.3-2.8c2.6,1.5-1.2,1.7-1.2,1.7
		c-4.4,0.2-6.6,1.6-10.6,4.3c-3.9,2.7-4.9,7.6-5.2,9.1c-0.2,1.6,2.8,6.7,3.6,7.6c0.7,0.9,0.6,1.9,0,2.1c-0.7,0.1-0.4,1-0.4,1
		l9.9,16.7c0.7-0.4,1.1,0.1,1.1,0.1s3.9,6,9,13.7l16.8-9.7V28.6L146,4l-42.5,24.5v49.1l42.5,24.5l16.2-9.4
		C157.8,84.9,154.4,78.8,154.3,78.6z"/>
</g>
</svg>
