<?xml version="1.0" encoding="utf-8"?>
<!-- Generator: Adobe Illustrator 19.0.0, SVG Export Plug-In . SVG Version: 6.00 Build 0)  -->
<svg version="1.1" id="Capa_1" xmlns="http://www.w3.org/2000/svg" xmlns:xlink="http://www.w3.org/1999/xlink" x="0px" y="0px"
	 viewBox="-426 228 105.5 106" style="enable-background:new -426 228 105.5 106;" xml:space="preserve">
<style type="text/css">
	.st0{fill:#7DB76C;}
	.st1{fill:#FFFFFF;}
	.st2{opacity:0.5;fill:#333333;enable-background:new    ;}
</style>
<g id="XMLID_741_">
	<g id="XMLID_1396_">
		<circle id="XMLID_508_" class="st0" cx="-374.2" cy="280" r="49.8"/>
		<g id="XMLID_509_">
			<path id="XMLID_510_" class="st1" d="M-355.7,286.6h-36.5c-2.6,0-4.8-2.1-4.8-4.8v-11.1h46v11.1
				C-350.9,284.5-353.1,286.6-355.7,286.6z"/>
			<polygon id="XMLID_511_" class="st1" points="-350.9,268.7 -396.9,268.7 -396.9,244.7 -393.9,246.7 -353.5,246.7 -350.9,244.7 
							"/>
			<path id="XMLID_512_" class="st1" d="M-372.2,315.7h-3.5c-1.9,0-3.4-1.6-3.4-3.6v-26.9h10.3v26.9
				C-368.8,314.1-370.3,315.7-372.2,315.7z"/>
			<polygon id="XMLID_513_" class="st1" points="-393.3,246.9 -391.4,244.7 -389.4,246.9 			"/>
			<polygon id="XMLID_514_" class="st1" points="-389.3,246.9 -387.4,244.7 -385.4,246.9 			"/>
			<polygon id="XMLID_515_" class="st1" points="-385.3,246.9 -383.4,244.7 -381.4,246.9 			"/>
			<polygon id="XMLID_516_" class="st1" points="-381.3,246.9 -379.4,244.7 -377.4,246.9 			"/>
			<polygon id="XMLID_517_" class="st1" points="-377.3,246.9 -375.4,244.7 -373.4,246.9 			"/>
			<polygon id="XMLID_518_" class="st1" points="-373.3,246.9 -371.4,244.7 -369.4,246.9 			"/>
			<polygon id="XMLID_519_" class="st1" points="-369.3,246.9 -367.4,244.7 -365.4,246.9 			"/>
			<polygon id="XMLID_520_" class="st1" points="-365.3,246.9 -363.4,244.7 -361.4,246.9 			"/>
			<polygon id="XMLID_521_" class="st1" points="-361.3,246.9 -359.4,244.7 -357.4,246.9 			"/>
			<polygon id="XMLID_522_" class="st1" points="-357.3,246.9 -355.4,244.7 -353.4,246.9 			"/>
		</g>
	</g>
	<path id="XMLID_1358_" class="st2" d="M-338.1,245.8c8.4,8.9,13.6,20.9,13.6,34.2c0,27.5-22.3,49.8-49.8,49.8
		c-13.2,0-25.3-5.2-34.2-13.6c9.1,9.6,21.9,15.6,36.2,15.6c27.5,0,49.8-22.3,49.8-49.8C-322.5,267.8-328.5,254.9-338.1,245.8z"/>
</g>
</svg>
