<?xml version="1.0" encoding="utf-8"?>
<!-- Generator: Adobe Illustrator 19.0.0, SVG Export Plug-In . SVG Version: 6.00 Build 0)  -->
<svg version="1.1" id="Capa_1" xmlns="http://www.w3.org/2000/svg" xmlns:xlink="http://www.w3.org/1999/xlink" x="0px" y="0px"
	 viewBox="0 0 69.2 72.4" style="enable-background:new 0 0 69.2 72.4;" xml:space="preserve">
<style type="text/css">
	.st0{fill:#F7931E;}
	.st1{fill:#4D4D4D;}
</style>
<g id="XMLID_155_">
	<circle id="XMLID_158_" class="st0" cx="34.6" cy="35.6" r="30.3"/>
	<g id="XMLID_156_">
		<path id="XMLID_157_" class="st1" d="M27.6,28l-7-9.6l6.8-5.9c1.2-1,2.9-0.7,3.7,0.6l5.1,8.9c0.8,1.3,0.1,3-1.3,3.5L27.6,28z"/>
		<path id="XMLID_159_" class="st1" d="M42.3,55L37,44.4l5.8-5.1c1.2-1,2.9-0.7,3.7,0.6l5.1,8.8c0.8,1.3,0.1,3-1.3,3.5L42.3,55z"/>
		<path id="XMLID_166_" class="st1" d="M41.1,55.5c-2.2,0.8-4.7,0.1-6.2-1.8c-3-4-7.9-10.6-9.7-13.7c-1.7-2.9-4.9-10.4-6.8-14.9
			c-0.9-2.2-0.3-4.7,1.5-6.2l2.7-2.2c0,0,6.4,15.3,9.1,20s12.5,17.6,12.5,17.6L41.1,55.5z"/>
	</g>
</g>
</svg>
