<?xml version="1.0" encoding="utf-8"?>
<!-- Generator: Adobe Illustrator 19.0.0, SVG Export Plug-In . SVG Version: 6.00 Build 0)  -->
<svg version="1.1" id="Capa_1" xmlns="http://www.w3.org/2000/svg" xmlns:xlink="http://www.w3.org/1999/xlink" x="0px" y="0px"
	 viewBox="0 0 359.5 212.5" style="enable-background:new 0 0 359.5 212.5;" xml:space="preserve">
<style type="text/css">
	.st0{fill:#5FD3FF;}
	.st1{fill:#4D4D4D;}
	.st2{fill:#A9E77D;}
</style>
<g id="XMLID_606_">
	<polygon id="XMLID_610_" class="st0" points="7.6,57.7 91.6,8.4 175.6,57.7 175.6,156.3 91.6,205.6 7.6,156.3 	"/>
	<g id="XMLID_607_">
		<circle id="XMLID_609_" class="st1" cx="94.1" cy="64.9" r="26.6"/>
		<path id="XMLID_608_" class="st1" d="M132.6,165.6H54.7v-46.9c0-11.7,9.5-21.1,21.1-21.1h35.6c11.7,0,21.1,9.5,21.1,21.1V165.6z"
			/>
	</g>
</g>
<g id="XMLID_817_">
	<polygon id="XMLID_827_" class="st2" points="182.6,57.7 267.1,8.4 351.6,57.7 351.6,156.3 267.1,205.6 182.6,156.3 	"/>
	<g id="XMLID_818_">
		<path id="XMLID_824_" class="st1" d="M269,56.4c-30,0-54.4,25-54.4,55.8c0,30.8,24.3,55.8,54.4,55.8s54.4-25,54.4-55.8
			C323.3,81.4,299,56.4,269,56.4z M269,158.8c-25.1,0-45.4-20.9-45.4-46.6s20.3-46.6,45.4-46.6s45.4,20.9,45.4,46.6
			S294,158.8,269,158.8z"/>
		<path id="XMLID_823_" class="st1" d="M289,61.1h-40.3v-3.9c0-3.7,3-6.7,6.7-6.7h26.9c3.7,0,6.7,3,6.7,6.7V61.1z"/>
		<rect id="XMLID_822_" x="263.4" y="47" class="st1" width="11" height="4.8"/>
		<path id="XMLID_821_" class="st1" d="M280.6,47.8h-23.5v-6.6c0-1.1,0.9-2,2-2h19.4c1.1,0,2,0.9,2,2V47.8z"/>
		<path id="XMLID_820_" class="st1" d="M264.9,130.5l-1.5,1.6c-0.7,0.8-1.9,0.8-2.7,0.1l-19-17.3c-0.8-0.7-0.8-1.9-0.1-2.7l1.5-1.6
			c0.7-0.8,1.9-0.8,2.7-0.1l19,17.3C265.6,128.6,265.6,129.8,264.9,130.5z"/>
		<path id="XMLID_819_" class="st1" d="M260.8,132.3l-1.7-1.5c-0.8-0.7-0.9-1.9-0.2-2.7l37.9-43.5c0.7-0.8,1.9-0.9,2.7-0.2l1.7,1.5
			c0.8,0.7,0.9,1.9,0.2,2.7l-37.9,43.5C262.8,132.9,261.6,133,260.8,132.3z"/>
	</g>
</g>
</svg>
