<?xml version="1.0" encoding="utf-8"?>
<!-- Generator: Adobe Illustrator 19.0.0, SVG Export Plug-In . SVG Version: 6.00 Build 0)  -->
<svg version="1.1" id="Capa_1" xmlns="http://www.w3.org/2000/svg" xmlns:xlink="http://www.w3.org/1999/xlink" x="0px" y="0px"
	 viewBox="0 0 105.5 106" style="enable-background:new 0 0 105.5 106;" xml:space="preserve">
<style type="text/css">
	.st0{fill:#FF6E2E;}
	.st1{fill:#FFFFFF;}
	.st2{opacity:0.5;fill:#333333;}
</style>
<g id="XMLID_762_">
	<g id="XMLID_1141_">
		<circle id="XMLID_552_" class="st0" cx="51.9" cy="52.2" r="50"/>
		<g id="XMLID_553_">
			<path id="XMLID_554_" class="st1" d="M51.9,32.4c-11.7,0-21.3,9.5-21.3,21.2s9.1,21.2,21.1,21.2v-4.6c-9,0-16.5-7.4-16.5-16.6
				c0-9.2,7.5-16.6,16.7-16.6s16.6,7.4,16.6,16.6c0,2.4-0.5,4.6-1.4,6.6c-2.3-0.4-4.5,0.8-5.5,3L59.9,67l1.4,0.6l-2.9,6.5
				c-0.2,0.4,0,0.9,0.4,1.1l0.2,0.1c0.4,0.2,0.9,0,1.1-0.4l2.9-6.5l4.4,2l-2.9,6.5c-0.2,0.4,0,0.9,0.4,1.1l0.2,0.1
				c0.4,0.2,0.9,0,1.1-0.4l2.9-6.5l1.4,0.6l1.7-3.8c0.9-2,0.4-4.3-1.1-5.8c1.2-2.6,1.8-5.6,1.8-8.6C73.1,41.9,63.6,32.4,51.9,32.4z"
				/>
			<path id="XMLID_555_" class="st1" d="M51.3,31.1c1.5,0,2.5-1.2,2.5-2.7v-7.9c0-1.5-1-2.7-2.5-2.7c-1.5,0-2.5,1.2-2.5,2.7v7.9
				C48.8,29.9,49.7,31.1,51.3,31.1z"/>
			<path id="XMLID_556_" class="st1" d="M33.6,36c1,1.2,2.7,1.3,3.9,0.3c1.2-1,1.3-2.7,0.3-3.9l-5.1-6.1c-1-1.2-2.7-1.3-3.9-0.3h0
				c-1.2,1-1.3,2.7-0.3,3.9L33.6,36z"/>
			<path id="XMLID_557_" class="st1" d="M29.7,49.7c0.3-1.5-0.7-2.9-2.2-3.2l-7.8-1.4c-1.5-0.3-2.9,0.7-3.2,2.2v0
				c-0.3,1.5,0.7,2.9,2.2,3.2l7.8,1.4C28.1,52.2,29.5,51.2,29.7,49.7z"/>
			<path id="XMLID_558_" class="st1" d="M32.4,64.9c-0.8-1.3-2.4-1.8-3.7-1l-6.9,4c-1.3,0.8-1.8,2.4-1,3.7c0.8,1.3,2.4,1.8,3.7,1
				l6.9-4C32.7,67.8,33.2,66.2,32.4,64.9L32.4,64.9z"/>
			<path id="XMLID_559_" class="st1" d="M44.2,74.7c-1.4-0.5-3,0.2-3.5,1.6L38,83.8c-0.5,1.4,0.2,3,1.6,3.5h0c1.4,0.5,3-0.2,3.5-1.6
				l2.7-7.4C46.4,76.8,45.6,75.3,44.2,74.7z"/>
			<path id="XMLID_560_" class="st1" d="M87.3,47.4L87.3,47.4c-0.3-1.5-1.7-2.5-3.2-2.2l-7.8,1.4c-1.5,0.3-2.5,1.7-2.2,3.2
				c0.3,1.5,1.7,2.5,3.2,2.2l7.8-1.4C86.5,50.3,87.5,48.9,87.3,47.4z"/>
			<path id="XMLID_561_" class="st1" d="M66.4,36.4c1.2,1,2.9,0.8,3.9-0.3l5.1-6.1c1-1.2,0.8-2.9-0.3-3.9c-1.2-1-2.9-0.8-3.9,0.3
				L66,32.5C65,33.7,65.2,35.4,66.4,36.4z"/>
		</g>
	</g>
	<path id="XMLID_745_" class="st2" d="M87.9,17.8c8.4,8.9,13.6,20.9,13.6,34.2c0,27.5-22.3,49.8-49.8,49.8
		c-13.2,0-25.3-5.2-34.2-13.6c9.1,9.6,21.9,15.6,36.2,15.6c27.5,0,49.8-22.3,49.8-49.8C103.6,39.7,97.6,26.9,87.9,17.8z"/>
</g>
</svg>
