<?xml version="1.0" encoding="utf-8"?>
<!-- Generator: Adobe Illustrator 19.0.0, SVG Export Plug-In . SVG Version: 6.00 Build 0)  -->
<svg version="1.1" id="Capa_1" xmlns="http://www.w3.org/2000/svg" xmlns:xlink="http://www.w3.org/1999/xlink" x="0px" y="0px"
	 viewBox="0 0 105.5 106" style="enable-background:new 0 0 105.5 106;" xml:space="preserve">
<style type="text/css">
	.st0{fill:#999966;}
	.st1{fill:#FFFFFF;}
	.st2{opacity:0.5;fill:#333333;}
</style>
<g id="XMLID_763_">
	<g id="XMLID_1134_">
		<circle id="XMLID_562_" class="st0" cx="52" cy="52.1" r="49.4"/>
		<g id="XMLID_563_">
			<path id="XMLID_564_" class="st1" d="M40.8,42.5L40.8,42.5c-0.6-0.4-0.8-1.2-0.4-1.8l5.5-8.9l1.8,2.1l-5,8.2
				C42.2,42.7,41.4,42.9,40.8,42.5z"/>
			<path id="XMLID_565_" class="st1" d="M52.8,36.2h9.7c1.2,0,2.3,0.9,2.5,2.1c0.9,5,3.1,17.6,3.4,22.4c0.9,11.7-1.9,26.6-1.9,26.6
				H40.6c0,0-5.8-4.3-6.4-17.6c-0.4-10,7.2-17.2,7.2-17.2s5.1-4.6,6.2-6.5c0.8-1.4,1.9-5.3,2.5-7.7C50.4,37,51.5,36.2,52.8,36.2z"/>
			<path id="XMLID_566_" class="st1" d="M64,34.2H50.4c0,0-2.7-3-3.9-4c-1-0.8-4.9-3-4.9-3v-8h22.8c1,0,2,0.5,2.6,1.4l2.5,3.9
				c0.6,0.9,0.5,2.1-0.2,3L64,34.2z"/>
			<path id="XMLID_567_" class="st1" d="M40.2,27.2c-0.9,0-1.7-0.8-1.7-1.7v-4.6c0-0.9,0.8-1.7,1.7-1.7V27.2z"/>
		</g>
	</g>
	<path id="XMLID_744_" class="st2" d="M87.3,17.3c8.4,8.9,13.6,20.9,13.6,34.2c0,27.5-22.3,49.8-49.8,49.8
		c-13.2,0-25.3-5.2-34.2-13.6c9.1,9.6,21.9,15.6,36.2,15.6c27.5,0,49.8-22.3,49.8-49.8C102.9,39.2,96.9,26.4,87.3,17.3z"/>
</g>
</svg>
