<?xml version="1.0" encoding="utf-8"?>
<!-- Generator: Adobe Illustrator 19.0.0, SVG Export Plug-In . SVG Version: 6.00 Build 0)  -->
<svg version="1.1" id="Capa_1" xmlns="http://www.w3.org/2000/svg" xmlns:xlink="http://www.w3.org/1999/xlink" x="0px" y="0px"
	 viewBox="0 0 105.5 106" style="enable-background:new 0 0 105.5 106;" xml:space="preserve">
<style type="text/css">
	.st0{fill:#93578F;}
	.st1{fill:#FFFFFF;}
	.st2{fill:none;stroke:#FFFFFF;stroke-width:2;stroke-miterlimit:10;}
	.st3{opacity:0.5;fill:#333333;}
</style>
<g id="XMLID_761_">
	<g id="XMLID_1116_">
		<circle id="XMLID_1130_" class="st0" cx="51.8" cy="52.5" r="50.8"/>
		<g id="XMLID_568_">
			<path id="XMLID_569_" class="st1" d="M80.7,39.9c-2.4,1.8-7.4,4.7-12.7,3.5c-2.1-0.5-3.3-1.4-4.5-2.3c-1.3-1-2.7-2-5.2-2.2
				c-3.2-0.3-5.5,1-7.5,2.2c-2.1,1.2-3.9,2.3-6.5,1.6c-1.6-0.4-2.3-1.1-3.2-2c-0.8-0.8-1.7-1.6-3.3-2.3c-4.3-1.7-9.7,0.1-16,5.3
				L21.6,44l0,35.5c0,4.2,2.9,7.5,6.4,7.5h47.3c3.5,0,6.5-3.1,6.5-7.3V39.2L80.7,39.9z"/>
			<path id="XMLID_570_" class="st1" d="M37.4,35.4c1.3,0.6,2,1.4,2.8,2.2c0.9,1,1.9,2.1,3.8,2.6c3.2,0.9,5.4-0.5,7.6-1.9
				c2-1.3,3.9-2.5,6.7-2.2c2.1,0.2,3.2,1.1,4.5,2.2c1.2,1,2.6,2.2,5,2.8c1,0.2,1.9,0.4,2.9,0.4c3.5,0,7.1-1.5,10.9-4.5l-0.9-1.7
				c-4.5,3.5-8.7,4.8-12.6,3.8c-2.1-0.5-3.3-1.5-4.4-2.5c-1.4-1.1-2.8-2.3-5.3-2.5c-3.3-0.3-5.6,1.2-7.6,2.5c-2,1.3-3.8,2.5-6.4,1.7
				c-1.5-0.5-2.3-1.3-3.1-2.2c-0.8-0.9-1.7-1.9-3.3-2.6c-4.4-2-9.9,0-16.2,5.9l1,1.6C28.7,35.6,33.6,33.7,37.4,35.4z"/>
			<g id="XMLID_571_">
				<path id="XMLID_572_" class="st2" d="M47.8,34v-8.8c0,0-0.4-7.7,8.6-6.8"/>
				<path id="XMLID_573_" class="st2" d="M57.8,32v-6.8c0,0-0.4-7.7,8.6-6.8"/>
				<line id="XMLID_574_" class="st2" x1="44.8" y1="26" x2="70.8" y2="26"/>
				<line id="XMLID_575_" class="st2" x1="47.8" y1="30" x2="57.8" y2="30"/>
			</g>
		</g>
	</g>
	<path id="XMLID_746_" class="st3" d="M88.8,18.3c8.4,8.9,13.6,20.9,13.6,34.2c0,27.5-22.3,49.8-49.8,49.8
		c-13.2,0-25.3-5.2-34.2-13.6c9.1,9.6,21.9,15.6,36.2,15.6c27.5,0,49.8-22.3,49.8-49.8C104.5,40.2,98.5,27.4,88.8,18.3z"/>
</g>
</svg>
