<?xml version="1.0" encoding="utf-8"?>
<!-- Generator: Adobe Illustrator 19.0.0, SVG Export Plug-In . SVG Version: 6.00 Build 0)  -->
<svg version="1.1" id="Capa_1" xmlns="http://www.w3.org/2000/svg" xmlns:xlink="http://www.w3.org/1999/xlink" x="0px" y="0px"
	 viewBox="-426 228 105.5 106" style="enable-background:new -426 228 105.5 106;" xml:space="preserve">
<style type="text/css">
	.st0{fill:#FBB03B;}
	.st1{fill:none;}
	.st2{fill:#FFFFFF;}
	.st3{fill:#4D4D4D;}
	.st4{opacity:0.5;fill:#333333;enable-background:new    ;}
</style>
<g id="XMLID_743_">
	<g id="XMLID_1488_">
		<circle id="XMLID_1507_" class="st0" cx="-373.8" cy="280" r="49.8"/>
		<g id="XMLID_1489_">
			<polygon id="XMLID_1506_" class="st1" points="-369.3,257.5 -377.1,274.4 -371.6,270.2 -377.1,286.2 -367.9,267.7 -372.5,268.6 
							"/>
			<path id="XMLID_1505_" class="st2" d="M-375.6,315.7h3.2c2.7,0,5.2-2,5.9-4h-14.9C-380.8,313.7-378.4,315.7-375.6,315.7z"/>
			<rect id="XMLID_1504_" x="-381.6" y="303.7" class="st2" width="15" height="3"/>
			<rect id="XMLID_1503_" x="-381.6" y="307.7" class="st2" width="15" height="3"/>
			<g id="XMLID_1490_">
				<g id="XMLID_503_">
					<g id="XMLID_1114_">
						<path id="XMLID_54_" class="st2" d="M-351.8,265.6c0,2.6-0.4,5.2-1.2,7.6h-0.1c-0.4,1.2-1.1,2.3-1.7,3.4l-8.7,18.5
							c-2.7,6.1-2.7,6.1-6.1,6.1h-8.9c-3.3,0-3.3,0-6.1-6.1l-8.6-18.5c-0.6-1.1-1.2-2.2-1.6-3.4v0.1c-0.8-2.5-1.3-5-1.3-7.6
							c0-12.2,9.9-22.2,22.2-22.2C-361.8,243.4-351.8,253.3-351.8,265.6z M-377.8,286.6l9.3-18.6l-4.7,0.9l3.2-11.1l-7.8,16.9
							l5.6-4.2L-377.8,286.6z"/>
						<path id="XMLID_53_" class="st3" d="M-394.9,273.3L-394.9,273.3L-394.9,273.3L-394.9,273.3z"/>
					</g>
					<g id="XMLID_1113_">
					</g>
				</g>
			</g>
		</g>
	</g>
	<path id="XMLID_747_" class="st4" d="M-337.5,245.8c8.4,8.9,13.6,20.9,13.6,34.2c0,27.5-22.3,49.8-49.8,49.8
		c-13.2,0-25.3-5.2-34.2-13.6c9.1,9.6,21.9,15.6,36.2,15.6c27.5,0,49.8-22.3,49.8-49.8C-321.9,267.8-327.9,254.9-337.5,245.8z"/>
</g>
</svg>
