<?xml version="1.0" encoding="utf-8"?>
<!-- Generator: Adobe Illustrator 19.0.0, SVG Export Plug-In . SVG Version: 6.00 Build 0)  -->
<svg version="1.1" id="Capa_1" xmlns="http://www.w3.org/2000/svg" xmlns:xlink="http://www.w3.org/1999/xlink" x="0px" y="0px"
	 viewBox="-426 228 105.5 106" style="enable-background:new -426 228 105.5 106;" xml:space="preserve">
<style type="text/css">
	.st0{fill:#336699;}
	.st1{fill:#FFFFFF;}
	.st2{opacity:0.5;fill:#333333;enable-background:new    ;}
</style>
<g id="XMLID_53_">
	<g id="XMLID_1412_">
		<circle id="XMLID_429_" class="st0" cx="-374.1" cy="280" r="49.8"/>
		<g id="XMLID_496_">
			<polygon id="XMLID_504_" class="st1" points="-374.6,299 -392.6,285.7 -374.1,244.7 -356.2,284.8 			"/>
			<path id="XMLID_505_" class="st1" d="M-374.2,274.9c-11.6,0-21,9.2-21,20.6s9.4,20.6,21,20.6s21-9.2,21-20.6
				S-362.6,274.9-374.2,274.9z M-372.7,309.6c7.8-2.5,14.7-13.5,14.7-13.5C-361.1,309.5-372.7,309.6-372.7,309.6z"/>
		</g>
	</g>
	<path id="XMLID_1360_" class="st2" d="M-338.2,245.8c8.4,8.9,13.6,20.9,13.6,34.2c0,27.5-22.3,49.8-49.8,49.8
		c-13.2,0-25.3-5.2-34.2-13.6c9.1,9.6,21.9,15.6,36.2,15.6c27.5,0,49.8-22.3,49.8-49.8C-322.6,267.8-328.6,254.9-338.2,245.8z"/>
</g>
</svg>
