<?xml version="1.0" encoding="utf-8"?>
<!-- Generator: Adobe Illustrator 19.0.0, SVG Export Plug-In . SVG Version: 6.00 Build 0)  -->
<svg version="1.1" id="Capa_1" xmlns="http://www.w3.org/2000/svg" xmlns:xlink="http://www.w3.org/1999/xlink" x="0px" y="0px"
	 viewBox="-426 228 105.5 106" style="enable-background:new -426 228 105.5 106;" xml:space="preserve">
<style type="text/css">
	.st0{fill:#FF7377;}
	.st1{fill:#FFFFFF;}
	.st2{opacity:0.5;fill:#333333;enable-background:new    ;}
</style>
<g id="XMLID_1419_">
	<circle id="XMLID_416_" class="st0" cx="-373.3" cy="281" r="49.8"/>
	<g id="XMLID_417_">
		<g id="XMLID_418_">
			<g id="XMLID_419_">
				<path id="XMLID_420_" class="st1" d="M-388.6,257.7h-3.6c-0.9,0-1.5-0.7-1.5-1.5V248c0-0.9,0.7-1.5,1.5-1.5h3.6
					c0.9,0,1.5,0.7,1.5,1.5v8.2C-387,257-387.8,257.7-388.6,257.7z"/>
				<rect id="XMLID_421_" x="-388" y="247.7" class="st1" width="4.1" height="8"/>
				<path id="XMLID_422_" class="st1" d="M-375.4,260.6h-5.8c-0.6,0-1.1-0.4-1.2-1s-0.3-1.3-0.6-1.9c-0.9-1.6-1.9-2-1.9-2v-7.6
					c0-0.8,0.6-1.4,1.4-1.4h10.5v11.7C-373,259.6-374,260.6-375.4,260.6z"/>
				<path id="XMLID_423_" class="st1" d="M-373.9,246.7h5.5c0,0,10.4-0.7,15.5,4.7c0,0,0.4,1.4-2.3,0.9c0,0-7.5-1.7-15,2.7
					c0,0-3.2,2-3.9,3.3v-11.6L-373.9,246.7L-373.9,246.7z"/>
			</g>
			<g id="XMLID_424_">
				<path id="XMLID_425_" class="st1" d="M-378,316.6L-378,316.6c-2.7,0-4.9-2.2-4.9-4.9v-27.3c0-1.4,1.2-2.6,2.6-2.6h4.7
					c1.4,0,2.6,1.2,2.6,2.6v27.3C-373,314.4-375.3,316.6-378,316.6z"/>
				<rect id="XMLID_426_" x="-380.3" y="259.8" class="st1" width="4.4" height="25.9"/>
			</g>
		</g>
		<polygon id="XMLID_427_" class="st1" points="-369,258.7 -360,258.7 -360,259.7 -362,259.7 -362,260.7 -360,260.7 -360,267.7 
			-362,267.7 -362,268.7 -360,268.7 -360,270.7 -362,270.7 -362,271.7 -360,271.7 -360,273.7 -362,273.7 -362,274.7 -360,274.7 
			-360,280.7 -362,280.7 -362,281.7 -360,281.7 -360,283.7 -362,283.7 -362,284.7 -360,284.7 -360,286.7 -362,286.7 -362,287.7 
			-360,287.7 -360,294.7 -362,294.7 -362,295.7 -360,295.7 -360,297.7 -362,297.7 -362,298.7 -360,298.7 -360,300.7 -362,300.7 
			-362,301.7 -360,301.7 -360,307.7 -362,307.7 -362,308.7 -360,308.7 -360,310.7 -362,310.7 -362,311.7 -360,311.7 -360,315.7 
			-369,315.7 		"/>
	</g>
</g>
<path id="XMLID_1362_" class="st2" d="M-764.3,473.1c8.4,8.9,13.6,20.9,13.6,34.2c0,27.5-22.3,49.8-49.8,49.8
	c-13.2,0-25.3-5.2-34.2-13.6c9.1,9.6,21.9,15.6,36.2,15.6c27.5,0,49.8-22.3,49.8-49.8C-748.6,495.1-754.6,482.2-764.3,473.1z"/>
</svg>
