<?xml version="1.0" encoding="utf-8"?>
<!-- Generator: Adobe Illustrator 19.0.0, SVG Export Plug-In . SVG Version: 6.00 Build 0)  -->
<svg version="1.1" id="Capa_1" xmlns="http://www.w3.org/2000/svg" xmlns:xlink="http://www.w3.org/1999/xlink" x="0px" y="0px"
	 viewBox="0 0 124 124" style="enable-background:new 0 0 124 124;" xml:space="preserve">
<style type="text/css">
	.st0{fill:#FFFFFF;stroke:#4D4D4D;stroke-width:5;stroke-miterlimit:10;}
	.st1{fill:#F7931E;}
</style>
<circle id="XMLID_279_" class="st0" cx="62.7" cy="62.5" r="56.5"/>
<g id="XMLID_646_">
	<path id="XMLID_653_" class="st1" d="M89.1,52.9H36.8v39.5h52.4V52.9z M67.4,82.3H57.3l1.9-9.6c-1.6-1.1-2.6-3.1-2.6-5.1
		c0-3.6,3.2-6.4,6.9-5.8c6.7,2,5.6,8.9,2.1,11.1L67.4,82.3z"/>
	<g id="XMLID_649_">
		<path id="XMLID_651_" class="st1" d="M78.8,56.7h-4.6V35c0-4.8-3.9-8.7-8.7-8.7H60c-4.8,0-8.7,3.9-8.7,8.7v21.6h-4.6V35
			c0-7.3,6-13.3,13.3-13.3h5.5c7.3,0,13.3,6,13.3,13.3V56.7z"/>
	</g>
</g>
</svg>
