<?xml version="1.0" encoding="utf-8"?>
<!-- Generator: Adobe Illustrator 19.0.0, SVG Export Plug-In . SVG Version: 6.00 Build 0)  -->
<svg version="1.1" id="Capa_1" xmlns="http://www.w3.org/2000/svg" xmlns:xlink="http://www.w3.org/1999/xlink" x="0px" y="0px"
	 viewBox="0 0 124 124" style="enable-background:new 0 0 124 124;" xml:space="preserve">
<style type="text/css">
	.st0{fill:#FFFFFF;stroke:#4D4D4D;stroke-width:5;stroke-miterlimit:10;}
	.st1{fill:#F7931E;}
</style>
<circle id="XMLID_433_" class="st0" cx="62" cy="62.9" r="56.5"/>
<g id="XMLID_221_">
	<path id="XMLID_382_" class="st1" d="M61.6,46.3l-19,7.8c-1.6,0.9-3.5,0.3-4.4-1.3l-1.3-2.4c-0.9-1.6-0.3-3.5,1.3-4.4l17.7-10.1
		c1.6-0.9,7.7-1.1,11.3,0c0,0,14.7,5.2,19.4,5.5c4.7,0.3,16.9,0.7,16.9,0.7v27.9h-6L61.6,46.3z"/>
	<path id="XMLID_385_" class="st1" d="M94.9,72.6L61.1,49.8l-17.2,6.3c-2.5,0.7-3.5,1.5-5.8-0.3l-3.2-5.3c-1.2-2.2-0.5-4.9,1.5-6.1
		l7.9-5.7l-1.2-0.6L33.7,42H21v27.7l7.3,1l32.4,19.6c5.7,1.6,7.3-4.1,7.3-4.1c8.1,1,8.1-3.9,8.1-3.9c6.1,2.9,9.2-4.9,9.2-4.9
		C92.5,77.4,94.9,72.6,94.9,72.6z"/>
</g>
</svg>
